STARTFONT 2.1
COMMENT
COMMENT Converted from OpenType font "Context_Ultra_Condensed.ttf" by "otf2bdf 3.0".
COMMENT
FONT -FreeType-Context Ultra Condensed SSi-Medium-R-Normal--50-360-100-100-P-148-ISO10646-1
SIZE 36 100 100
FONTBOUNDINGBOX 58 57 -8 -10
STARTPROPERTIES 19
FOUNDRY "FreeType"
FAMILY_NAME "Context Ultra Condensed SSi"
WEIGHT_NAME "Medium"
SLANT "R"
SETWIDTH_NAME "Normal"
ADD_STYLE_NAME ""
PIXEL_SIZE 50
POINT_SIZE 360
RESOLUTION_X 100
RESOLUTION_Y 100
SPACING "P"
AVERAGE_WIDTH 148
CHARSET_REGISTRY "ISO10646"
CHARSET_ENCODING "1"
FONT_ASCENT 36
FONT_DESCENT 6
COPYRIGHT "Copyright c 1992 Southern Software, Inc. All Rights Reserved"
_OTF_FONTFILE "Context_Ultra_Condensed.ttf"
_OTF_PSNAME "ContextUltraCondensedSSiUltraCondensed"
ENDPROPERTIES
CHARS 230
STARTCHAR 0020
ENCODING 32
SWIDTH 160 0
DWIDTH 8 0
BBX 0 0 0 0
BITMAP
ENDCHAR
STARTCHAR 0021
ENCODING 33
SWIDTH 200 0
DWIDTH 10 0
BBX 5 36 3 0
BITMAP
F8
F8
F8
F8
F8
F8
F8
F8
F8
F8
F8
F8
F8
F8
F8
F8
F8
F8
F8
F8
F8
F8
F8
F8
F8
F8
F8
F8
F8
00
00
F8
F8
F8
F8
F8
ENDCHAR
STARTCHAR 0022
ENCODING 34
SWIDTH 340 0
DWIDTH 17 0
BBX 12 14 2 22
BITMAP
F8F0
F8F0
F8F0
F8F0
F8F0
F8F0
F8F0
F8F0
F8F0
F8F0
F8F0
F8F0
F8F0
F8F0
ENDCHAR
STARTCHAR 0023
ENCODING 35
SWIDTH 340 0
DWIDTH 17 0
BBX 20 36 -2 0
BITMAP
01C1C0
01C1C0
01C1C0
03C1C0
03C3C0
03C3C0
0383C0
038380
038380
038380
038380
3FFFF0
3FFFF0
3FFFF0
070780
070780
070700
070700
070700
070700
0F0700
0F0700
FFFFE0
FFFFE0
FFFFE0
0E0E00
0E0E00
0E0E00
1E0E00
1E0E00
1E1E00
1C1E00
1C1E00
1C1C00
1C1C00
1C1C00
ENDCHAR
STARTCHAR 0024
ENCODING 36
SWIDTH 340 0
DWIDTH 17 0
BBX 14 39 1 -2
BITMAP
0380
0380
0FE0
1FF8
3FF8
7FFC
7C7C
FC7C
FC7C
FC7C
FC7C
FC7C
FC7C
FE7C
7E7C
7F00
3F80
1FC0
1FE0
0FE0
07F0
03F8
03F8
01FC
FCFC
FCFC
FC7C
FC7C
FC7C
FC7C
FC7C
FC7C
FC7C
7FFC
7FF8
3FF8
1FE0
0380
0380
ENDCHAR
STARTCHAR 0025
ENCODING 37
SWIDTH 500 0
DWIDTH 25 0
BBX 23 36 1 0
BITMAP
3F00E0
7F80C0
FFC1C0
F3C180
F3C180
F3C380
F3C300
F3C300
F3C700
F3C600
F3C600
F3CE00
F3CE00
F3CC00
F3DC00
F3DC00
F3D9F8
FFDBFC
7FBFFE
3F379E
00379E
00779E
00679E
00679E
00E79E
00C79E
00C79E
01C79E
01879E
01879E
03879E
03879E
03079E
0707FE
0703FC
0601F0
ENDCHAR
STARTCHAR 0026
ENCODING 38
SWIDTH 380 0
DWIDTH 19 0
BBX 17 36 2 0
BITMAP
0FE000
3FF000
3FF800
7CF800
7C7800
7C7800
7C7C00
7C7C00
7C7800
7C7800
7CF800
7CF800
7FF000
3FE000
3FC000
3F8000
7F1F00
FF9F00
FF9F00
FF9F00
FFDF00
FFDF00
FBDF00
FBFF00
FBFF00
F9FF00
F9FF00
F9FF00
F8FF00
F8FF00
F87F00
FC7F80
7FFF80
7FFF80
3FFF80
0FC780
ENDCHAR
STARTCHAR 0027
ENCODING 39
SWIDTH 220 0
DWIDTH 11 0
BBX 5 14 3 22
BITMAP
F8
F8
F8
F8
F8
F8
F8
F8
F8
F8
F8
F8
F8
F8
ENDCHAR
STARTCHAR 0028
ENCODING 40
SWIDTH 160 0
DWIDTH 8 0
BBX 9 41 1 -5
BITMAP
0F00
1F00
1E00
1E00
3E00
3C00
3C00
7C00
7800
7800
7800
F800
F800
F000
F000
F000
F000
F000
F000
F000
F000
F000
F000
F000
F000
F000
F000
F800
F800
F800
7800
7800
7800
7C00
3C00
3C00
3E00
1E00
1E00
1F00
0F80
ENDCHAR
STARTCHAR 0029
ENCODING 41
SWIDTH 160 0
DWIDTH 8 0
BBX 9 41 -1 -5
BITMAP
F800
7800
7800
7C00
3C00
3C00
3E00
1E00
1E00
1F00
1F00
0F00
0F00
0F00
0F00
0F00
0F80
0F80
0F80
0F80
0F80
0F80
0F80
0F80
0F80
0F00
0F00
0F00
0F00
1F00
1F00
1F00
1E00
1E00
3E00
3C00
3C00
7C00
7800
7800
F000
ENDCHAR
STARTCHAR 002A
ENCODING 42
SWIDTH 320 0
DWIDTH 16 0
BBX 14 13 1 23
BITMAP
0300
0300
0300
C318
FB7C
7FF8
1FE0
0780
0FC0
1DE0
3CE0
7870
1020
ENDCHAR
STARTCHAR 002B
ENCODING 43
SWIDTH 500 0
DWIDTH 25 0
BBX 25 25 0 2
BITMAP
003E0000
003E0000
003E0000
003E0000
003E0000
003E0000
003E0000
003E0000
003E0000
003E0000
003E0000
FFFFFF80
FFFFFF80
FFFFFF80
FFFFFF80
003E0000
003E0000
003E0000
003E0000
003E0000
003E0000
003E0000
003E0000
003E0000
003E0000
ENDCHAR
STARTCHAR 002C
ENCODING 44
SWIDTH 160 0
DWIDTH 8 0
BBX 6 11 1 -6
BITMAP
7C
7C
7C
78
78
78
F0
F0
F0
E0
E0
ENDCHAR
STARTCHAR 002D
ENCODING 45
SWIDTH 160 0
DWIDTH 8 0
BBX 6 3 1 14
BITMAP
FC
FC
FC
ENDCHAR
STARTCHAR 002E
ENCODING 46
SWIDTH 160 0
DWIDTH 8 0
BBX 5 5 2 0
BITMAP
F8
F8
F8
F8
F8
ENDCHAR
STARTCHAR 002F
ENCODING 47
SWIDTH 280 0
DWIDTH 14 0
BBX 14 36 0 0
BITMAP
000C
001C
001C
0018
0038
0038
0070
0070
0060
00E0
00E0
00C0
01C0
01C0
0180
0380
0380
0300
0700
0700
0600
0E00
0E00
0C00
1C00
1C00
1800
3800
3800
3000
7000
7000
6000
E000
E000
C000
ENDCHAR
STARTCHAR 0030
ENCODING 48
SWIDTH 340 0
DWIDTH 17 0
BBX 14 36 1 0
BITMAP
0FE0
3FF0
7FF8
7FFC
7CFC
FC7C
FC7C
FC7C
FC7C
FC7C
FC7C
FC7C
FC7C
FC7C
FC7C
FC7C
FC7C
FC7C
FC7C
FC7C
FC7C
FC7C
FC7C
FC7C
FC7C
FC7C
FC7C
FC7C
FC7C
FC7C
FC7C
7CFC
7FFC
3FF8
3FF0
0FC0
ENDCHAR
STARTCHAR 0031
ENCODING 49
SWIDTH 340 0
DWIDTH 17 0
BBX 10 36 2 0
BITMAP
07C0
07C0
07C0
0FC0
3FC0
FFC0
FFC0
FFC0
0FC0
0FC0
0FC0
0FC0
0FC0
0FC0
0FC0
0FC0
0FC0
0FC0
0FC0
0FC0
0FC0
0FC0
0FC0
0FC0
0FC0
0FC0
0FC0
0FC0
0FC0
0FC0
0FC0
0FC0
0FC0
0FC0
0FC0
0FC0
ENDCHAR
STARTCHAR 0032
ENCODING 50
SWIDTH 340 0
DWIDTH 17 0
BBX 14 36 1 0
BITMAP
0FE0
3FF0
3FF8
7FFC
7C7C
FC7C
FC7C
FC7C
FC7C
FC7C
FC7C
FC7C
FCFC
00FC
00F8
01F8
01F0
03F0
03F0
07E0
07E0
0FC0
0FC0
1F80
1F00
3F00
3F00
7E00
7E00
7E00
7C00
FC00
FFFC
FFFC
FFFC
FFFC
ENDCHAR
STARTCHAR 0033
ENCODING 51
SWIDTH 340 0
DWIDTH 17 0
BBX 14 36 1 0
BITMAP
0FE0
3FF0
7FF8
7FFC
7C7C
FC7C
FC7C
FC7C
FC7C
FC7C
FC7C
FC7C
FC7C
007C
007C
00FC
03F8
03E0
03E0
03F8
00FC
007C
007C
FC7C
FC7C
FC7C
FC7C
FC7C
FC7C
FC7C
7C7C
7C7C
7FFC
3FF8
3FF0
0FE0
ENDCHAR
STARTCHAR 0034
ENCODING 52
SWIDTH 340 0
DWIDTH 17 0
BBX 16 36 0 0
BITMAP
01FC
03FC
03FC
03FC
07FC
07FC
07FC
07FC
0F7C
0F7C
0F7C
0F7C
1E7C
1E7C
1E7C
3E7C
3E7C
3C7C
3C7C
7C7C
787C
787C
787C
FFFF
FFFF
FFFF
FFFF
007C
007C
007C
007C
007C
007C
007C
007C
007C
ENDCHAR
STARTCHAR 0035
ENCODING 53
SWIDTH 340 0
DWIDTH 17 0
BBX 14 36 1 0
BITMAP
7FFC
7FFC
7FFC
7FFC
7C00
7C00
7C00
7C00
7C00
7C00
7C00
7C00
7C00
7C00
7CF0
7FF8
7FFC
7FFC
7CFC
007C
007C
007C
007C
FC7C
FC7C
FC7C
FC7C
FC7C
FC7C
FC7C
FC7C
FC7C
7FFC
7FF8
3FF0
0FE0
ENDCHAR
STARTCHAR 0036
ENCODING 54
SWIDTH 340 0
DWIDTH 17 0
BBX 14 36 1 0
BITMAP
0FE0
3FF0
3FF8
7FFC
7C7C
FC7C
FC7C
FC7C
FC7C
FC7C
FC7C
FC7C
FC7C
FC7C
FC00
FDF0
FFF8
FFFC
FFFC
FCFC
FC7C
FC7C
FC7C
FC7C
FC7C
FC7C
FC7C
FC7C
FC7C
FC7C
FC7C
7C7C
7FFC
7FF8
3FF8
0FE0
ENDCHAR
STARTCHAR 0037
ENCODING 55
SWIDTH 340 0
DWIDTH 17 0
BBX 15 36 1 0
BITMAP
FFFE
FFFE
FFFE
FFFE
007E
007C
007C
007C
00FC
00F8
00F8
01F8
01F8
01F8
01F0
03F0
03F0
03F0
03E0
07E0
07E0
07E0
07C0
0FC0
0FC0
0FC0
0F80
1F80
1F80
1F80
1F00
3F00
3F00
3F00
3E00
7E00
ENDCHAR
STARTCHAR 0038
ENCODING 56
SWIDTH 340 0
DWIDTH 17 0
BBX 14 36 1 0
BITMAP
0FC0
3FF0
7FF8
7FFC
7C7C
FC7C
FC7C
FC7C
FC7C
FC7C
FC7C
FC7C
FC7C
7C7C
7C7C
7FF8
1FF0
1FE0
3FF8
7CFC
7C7C
FC7C
FC7C
FC7C
FC7C
FC7C
FC7C
FC7C
FC7C
FC7C
FC7C
7C7C
7FFC
7FF8
3FF0
0FC0
ENDCHAR
STARTCHAR 0039
ENCODING 57
SWIDTH 340 0
DWIDTH 17 0
BBX 14 36 1 0
BITMAP
0FE0
3FF0
7FF8
7FFC
7C7C
FC7C
FC7C
FC7C
FC7C
FC7C
FC7C
FC7C
FC7C
FC7C
FC7C
FC7C
FC7C
FC7C
FC7C
7FFC
7FFC
7FFC
1E7C
007C
007C
007C
FC7C
FC7C
FC7C
FC7C
FC7C
7C7C
7FFC
7FF8
3FF0
0FC0
ENDCHAR
STARTCHAR 003A
ENCODING 58
SWIDTH 160 0
DWIDTH 8 0
BBX 5 26 2 0
BITMAP
F8
F8
F8
F8
F8
00
00
00
00
00
00
00
00
00
00
00
00
00
00
00
00
F8
F8
F8
F8
F8
ENDCHAR
STARTCHAR 003B
ENCODING 59
SWIDTH 160 0
DWIDTH 8 0
BBX 7 32 0 -6
BITMAP
3E
3E
3E
3E
3E
00
00
00
00
00
00
00
00
00
00
00
00
00
00
00
00
3E
3E
3C
7C
7C
78
78
78
70
70
F0
ENDCHAR
STARTCHAR 003C
ENCODING 60
SWIDTH 500 0
DWIDTH 25 0
BBX 21 23 2 3
BITMAP
000008
000018
0000F8
0003F8
000FF0
003FC0
01FF00
07FC00
1FE000
7F8000
FE0000
F80000
FE0000
FF8000
1FE000
07F800
01FF00
007FC0
000FF0
0003F8
0000F8
000038
000008
ENDCHAR
STARTCHAR 003D
ENCODING 61
SWIDTH 500 0
DWIDTH 25 0
BBX 25 15 0 7
BITMAP
FFFFFF80
FFFFFF80
FFFFFF80
FFFFFF80
00000000
00000000
00000000
00000000
00000000
00000000
00000000
FFFFFF80
FFFFFF80
FFFFFF80
FFFFFF80
ENDCHAR
STARTCHAR 003E
ENCODING 62
SWIDTH 500 0
DWIDTH 25 0
BBX 21 23 2 1
BITMAP
800000
C00000
F80000
FE0000
7F8000
1FE000
07FC00
01FF00
007FC0
000FF8
0003F8
0000F8
0003F8
000FF8
003FE0
00FF00
07FC00
1FF000
7FC000
FE0000
F80000
E00000
800000
ENDCHAR
STARTCHAR 003F
ENCODING 63
SWIDTH 340 0
DWIDTH 17 0
BBX 12 36 2 0
BITMAP
1F80
3FE0
7FF0
F9F0
F8F0
F8F0
F8F0
F8F0
F8F0
F8F0
F8F0
F9F0
F9F0
01F0
03F0
03E0
07E0
07C0
0FC0
0F80
0F80
0F80
0F80
0F80
0F80
0F80
0F80
0F80
0F80
0000
0000
0F80
0F80
0F80
0F80
0F80
ENDCHAR
STARTCHAR 0040
ENCODING 64
SWIDTH 800 0
DWIDTH 40 0
BBX 36 36 2 0
BITMAP
0003FE0000
001FFFC000
007FFFF000
00FE01FC00
03F0003E00
07C0001F00
0F80000780
0F00F803C0
1E07FE7BC0
3E0FFF79E0
3C1FFFF1E0
7C3F87F0E0
783E03F0F0
787C03F0F0
F87C01E0F0
F0F801E0F0
F0F801E0F0
F0F801E0F0
F0F003C0E0
F0F003C0E0
F0F003C1E0
F8F007C1C0
78F80783C0
78F80F8780
7CFC3F8F00
3C7FFFFE00
3E3FF7FC00
1E1FE7F800
1F0783C3C0
0F80000780
07E0000F00
03F0003E00
00FE01FC00
007FFFF800
001FFFE000
0003FE0000
ENDCHAR
STARTCHAR 0041
ENCODING 65
SWIDTH 340 0
DWIDTH 17 0
BBX 16 36 0 0
BITMAP
0FF0
0FF0
0FF8
0FF8
0FF8
0FF8
0FF8
1FF8
1F78
1F78
1F78
1F7C
1F7C
1E7C
1E7C
1E7C
3E7C
3E7C
3E7C
3E7E
3E7E
3E7E
3FFE
3FFE
3FFE
7FFE
7C3E
7C3E
7C3F
7C3F
7C3F
7C1F
7C1F
781F
F81F
F81F
ENDCHAR
STARTCHAR 0042
ENCODING 66
SWIDTH 340 0
DWIDTH 17 0
BBX 14 36 1 0
BITMAP
FFE0
FFF0
FFF8
FFFC
FCFC
FC7C
FC7C
FC7C
FC7C
FC7C
FC7C
FC7C
FC7C
FC7C
FCFC
FFF8
FFE0
FFE0
FFF8
FCFC
FC7C
FC7C
FC7C
FC7C
FC7C
FC7C
FC7C
FC7C
FC7C
FC7C
FC7C
FCFC
FFF8
FFF8
FFF0
FFE0
ENDCHAR
STARTCHAR 0043
ENCODING 67
SWIDTH 340 0
DWIDTH 17 0
BBX 14 36 1 0
BITMAP
0FC0
3FF0
7FF8
7FFC
FC7C
FC7C
FC7C
FC7C
FC7C
FC7C
FC7C
FC7C
FC7C
FC00
FC00
FC00
FC00
FC00
FC00
FC00
FC00
FC00
FC7C
FC7C
FC7C
FC7C
FC7C
FC7C
FC7C
FC7C
FC7C
FC7C
7FFC
7FF8
3FF0
0FC0
ENDCHAR
STARTCHAR 0044
ENCODING 68
SWIDTH 340 0
DWIDTH 17 0
BBX 14 36 1 0
BITMAP
FFC0
FFF0
FFF8
FFFC
FCFC
FC7C
FC7C
FC7C
FC7C
FC7C
FC7C
FC7C
FC7C
FC7C
FC7C
FC7C
FC7C
FC7C
FC7C
FC7C
FC7C
FC7C
FC7C
FC7C
FC7C
FC7C
FC7C
FC7C
FC7C
FC7C
FC7C
FCFC
FFFC
FFF8
FFF0
FFE0
ENDCHAR
STARTCHAR 0045
ENCODING 69
SWIDTH 280 0
DWIDTH 14 0
BBX 11 36 2 0
BITMAP
FFE0
FFE0
FFE0
FFE0
F800
F800
F800
F800
F800
F800
F800
F800
F800
F800
FFE0
FFE0
FFE0
FFE0
F800
F800
F800
F800
F800
F800
F800
F800
F800
F800
F800
F800
F800
F800
FFE0
FFE0
FFE0
FFE0
ENDCHAR
STARTCHAR 0046
ENCODING 70
SWIDTH 280 0
DWIDTH 14 0
BBX 11 36 2 0
BITMAP
FFE0
FFE0
FFE0
FFE0
F800
F800
F800
F800
F800
F800
F800
F800
F800
F800
FFE0
FFE0
FFE0
FFE0
F800
F800
F800
F800
F800
F800
F800
F800
F800
F800
F800
F800
F800
F800
F800
F800
F800
F800
ENDCHAR
STARTCHAR 0047
ENCODING 71
SWIDTH 340 0
DWIDTH 17 0
BBX 14 36 1 0
BITMAP
0FC0
3FF0
7FF8
7FFC
FC7C
FC7C
FC7C
FC7C
FC7C
FC7C
FC7C
FC7C
FC7C
FC00
FC00
FC00
FC00
FC00
FDFC
FDFC
FDFC
FDFC
FC7C
FC7C
FC7C
FC7C
FC7C
FC7C
FC7C
FC7C
FC7C
FC7C
7FFC
7FFC
3FCC
0F8C
ENDCHAR
STARTCHAR 0048
ENCODING 72
SWIDTH 340 0
DWIDTH 17 0
BBX 13 36 2 0
BITMAP
F8F8
F8F8
F8F8
F8F8
F8F8
F8F8
F8F8
F8F8
F8F8
F8F8
F8F8
F8F8
F8F8
F8F8
FFF8
FFF8
FFF8
FFF8
F8F8
F8F8
F8F8
F8F8
F8F8
F8F8
F8F8
F8F8
F8F8
F8F8
F8F8
F8F8
F8F8
F8F8
F8F8
F8F8
F8F8
F8F8
ENDCHAR
STARTCHAR 0049
ENCODING 73
SWIDTH 160 0
DWIDTH 8 0
BBX 6 36 1 0
BITMAP
FC
FC
FC
FC
FC
FC
FC
FC
FC
FC
FC
FC
FC
FC
FC
FC
FC
FC
FC
FC
FC
FC
FC
FC
FC
FC
FC
FC
FC
FC
FC
FC
FC
FC
FC
FC
ENDCHAR
STARTCHAR 004A
ENCODING 74
SWIDTH 340 0
DWIDTH 17 0
BBX 13 36 2 0
BITMAP
00F8
00F8
00F8
00F8
00F8
00F8
00F8
00F8
00F8
00F8
00F8
00F8
00F8
00F8
00F8
00F8
00F8
00F8
00F8
00F8
00F8
00F8
F8F8
F8F8
F8F8
F8F8
F8F8
F8F8
F8F8
F8F8
F8F8
F8F8
FFF8
7FF0
3FE0
1F80
ENDCHAR
STARTCHAR 004B
ENCODING 75
SWIDTH 340 0
DWIDTH 17 0
BBX 14 36 2 0
BITMAP
F87C
F87C
F8FC
F8F8
F8F8
F8F8
F9F8
F9F0
F9F0
F9F0
FBF0
FBE0
FBE0
FBE0
FFE0
FFC0
FFC0
FFC0
FFE0
FFE0
FBE0
FBE0
FBE0
FBF0
FBF0
F9F0
F9F0
F9F8
F9F8
F9F8
F8F8
F8F8
F8FC
F8FC
F87C
F87C
ENDCHAR
STARTCHAR 004C
ENCODING 76
SWIDTH 280 0
DWIDTH 14 0
BBX 12 36 2 0
BITMAP
F800
F800
F800
F800
F800
F800
F800
F800
F800
F800
F800
F800
F800
F800
F800
F800
F800
F800
F800
F800
F800
F800
F800
F800
F800
F800
F800
F800
F800
F800
F800
F800
FFF0
FFF0
FFF0
FFF0
ENDCHAR
STARTCHAR 004D
ENCODING 77
SWIDTH 480 0
DWIDTH 24 0
BBX 20 36 2 0
BITMAP
FF0FF0
FF0FF0
FF0FF0
FF0FF0
FF0FF0
FF0FF0
FF0FF0
F78FF0
F78EF0
F79EF0
F79EF0
F79EF0
F79EF0
F79EF0
F79EF0
F79EF0
F7DEF0
F3DEF0
F3DEF0
F3DCF0
F3DCF0
F3DCF0
F3DCF0
F3DCF0
F3FCF0
F3FCF0
F1FCF0
F1F8F0
F1F8F0
F1F8F0
F1F8F0
F1F8F0
F1F8F0
F1F8F0
F1F8F0
F0F8F0
ENDCHAR
STARTCHAR 004E
ENCODING 78
SWIDTH 380 0
DWIDTH 19 0
BBX 16 36 2 0
BITMAP
FF0F
FF0F
FF0F
FF0F
FF0F
FF0F
FF0F
FF8F
FF8F
FF8F
FF8F
F78F
F78F
F7CF
F7CF
F7CF
F7CF
F7CF
F3CF
F3CF
F3EF
F3EF
F3EF
F3EF
F3EF
F1EF
F1EF
F1EF
F1EF
F1EF
F1EF
F1FF
F0FF
F0FF
F0FF
F0FF
ENDCHAR
STARTCHAR 004F
ENCODING 79
SWIDTH 340 0
DWIDTH 17 0
BBX 14 36 1 0
BITMAP
0FC0
3FF0
7FF8
7FFC
FC7C
FC7C
FC7C
FC7C
FC7C
FC7C
FC7C
FC7C
FC7C
FC7C
FC7C
FC7C
FC7C
FC7C
FC7C
FC7C
FC7C
FC7C
FC7C
FC7C
FC7C
FC7C
FC7C
FC7C
FC7C
FC7C
FC7C
FC7C
7FFC
7FF8
3FF0
0FC0
ENDCHAR
STARTCHAR 0050
ENCODING 80
SWIDTH 340 0
DWIDTH 17 0
BBX 14 36 1 0
BITMAP
FFC0
FFF0
FFF8
FFFC
FCFC
FC7C
FC7C
FC7C
FC7C
FC7C
FC7C
FC7C
FC7C
FC7C
FC7C
FC7C
FC7C
FCFC
FFFC
FFF8
FFF8
FFE0
FC00
FC00
FC00
FC00
FC00
FC00
FC00
FC00
FC00
FC00
FC00
FC00
FC00
FC00
ENDCHAR
STARTCHAR 0051
ENCODING 81
SWIDTH 340 0
DWIDTH 17 0
BBX 15 40 1 -4
BITMAP
0FC0
3FF0
7FF8
7FFC
FC7C
FC7C
FC7C
FC7C
FC7C
FC7C
FC7C
FC7C
FC7C
FC7C
FC7C
FC7C
FC7C
FC7C
FC7C
FC7C
FC7C
FC7C
FC7C
FC7C
FC7C
FC7C
FC7C
FC7C
FC7C
FC7C
FC7C
FC7C
7FFC
7FF8
3FF0
0FF0
007E
007E
007E
003E
ENDCHAR
STARTCHAR 0052
ENCODING 82
SWIDTH 340 0
DWIDTH 17 0
BBX 15 36 1 0
BITMAP
FFE0
FFF8
FFF8
FFFC
FCFC
FC7C
FC7C
FC7C
FC7C
FC7C
FC7C
FC7C
FC7C
FC7C
FCF8
FFF0
FF80
FFF0
FFF8
FCFC
FC7C
FC7C
FC7C
FC7C
FC7C
FC7C
FC7C
FC7C
FC7C
FC7C
FC7C
FC7C
FC7C
FC7E
FC7E
FC7E
ENDCHAR
STARTCHAR 0053
ENCODING 83
SWIDTH 340 0
DWIDTH 17 0
BBX 14 36 1 0
BITMAP
0FC0
3FF0
7FF8
7FFC
FC7C
FC7C
FC7C
FC7C
FC7C
FC7C
FC7C
FC7C
7E7C
7E00
7F00
3F80
1FC0
0FE0
0FE0
07F0
03F8
01F8
FCFC
FCFC
FC7C
FC7C
FC7C
FC7C
FC7C
FC7C
FC7C
FC7C
7FFC
7FF8
3FF0
0FC0
ENDCHAR
STARTCHAR 0054
ENCODING 84
SWIDTH 320 0
DWIDTH 16 0
BBX 14 36 1 0
BITMAP
FFFC
FFFC
FFFC
FFFC
0FC0
0FC0
0FC0
0FC0
0FC0
0FC0
0FC0
0FC0
0FC0
0FC0
0FC0
0FC0
0FC0
0FC0
0FC0
0FC0
0FC0
0FC0
0FC0
0FC0
0FC0
0FC0
0FC0
0FC0
0FC0
0FC0
0FC0
0FC0
0FC0
0FC0
0FC0
0FC0
ENDCHAR
STARTCHAR 0055
ENCODING 85
SWIDTH 340 0
DWIDTH 17 0
BBX 14 36 1 0
BITMAP
FC7C
FC7C
FC7C
FC7C
FC7C
FC7C
FC7C
FC7C
FC7C
FC7C
FC7C
FC7C
FC7C
FC7C
FC7C
FC7C
FC7C
FC7C
FC7C
FC7C
FC7C
FC7C
FC7C
FC7C
FC7C
FC7C
FC7C
FC7C
FC7C
FC7C
FC7C
7C7C
7FFC
7FF8
3FF0
0FC0
ENDCHAR
STARTCHAR 0056
ENCODING 86
SWIDTH 340 0
DWIDTH 17 0
BBX 16 36 0 0
BITMAP
FC1F
FC1F
FC1F
7C1F
7C1F
7C1F
7C3F
7C3F
7C3E
7E3E
7E3E
7E3E
3E3E
3E3E
3E3E
3E3E
3E7C
3E7C
3E7C
3F7C
3F7C
1F7C
1F7C
1F7C
1F7C
1F78
1F78
1F78
1FF8
1FF8
0FF8
0FF8
0FF8
0FF8
0FF0
0FF0
ENDCHAR
STARTCHAR 0057
ENCODING 87
SWIDTH 480 0
DWIDTH 24 0
BBX 24 36 0 0
BITMAP
FC3E1F
7C7F1E
7C7F1E
7C7F1E
7C7F1E
7C7F1E
7C7F1E
7C7F1E
7E7F3E
7E773E
7E773C
3EF73C
3EF73C
3EF73C
3EF7BC
3EF7BC
3EF7BC
3EF7BC
3EF7BC
3EF7BC
3EE7FC
3EE7F8
1EE7F8
1FE7F8
1FE7F8
1FE7F8
1FE3F8
1FE3F8
1FE3F8
1FE3F8
1FC3F8
1FC3F0
1FC3F0
0FC3F0
0FC3F0
0FC3F0
ENDCHAR
STARTCHAR 0058
ENCODING 88
SWIDTH 340 0
DWIDTH 17 0
BBX 17 36 0 0
BITMAP
FC1F80
7C1F00
7C1F00
7E1F00
7E3E00
3E3E00
3E3E00
3E3E00
3F7C00
1F7C00
1F7C00
1F7C00
1F7800
0F7800
0FF800
0FF000
0FF000
0FF000
0FF800
0FF800
0FF800
0FF800
1FFC00
1F7C00
1F7C00
1F7C00
3E7C00
3E7E00
3E3E00
3E3E00
7C3E00
7C3F00
7C3F00
7C1F00
F81F00
F81F80
ENDCHAR
STARTCHAR 0059
ENCODING 89
SWIDTH 340 0
DWIDTH 17 0
BBX 16 36 0 0
BITMAP
FC1F
7C1F
7C1F
7C1F
7E3E
3E3E
3E3E
3E3E
3F7C
1F7C
1F7C
1F7C
1F78
1F78
0F78
0FF8
0FF0
0FF0
07F0
07F0
07E0
07E0
03E0
03E0
03E0
03E0
03E0
03E0
03E0
03E0
03E0
03E0
03E0
03E0
03E0
03E0
ENDCHAR
STARTCHAR 005A
ENCODING 90
SWIDTH 260 0
DWIDTH 13 0
BBX 11 36 1 0
BITMAP
FFE0
FFE0
FFE0
FFE0
03E0
07E0
07E0
07C0
07C0
0FC0
0FC0
0FC0
0F80
0F80
1F80
1F80
1F00
1F00
1F00
3F00
3F00
3E00
3E00
3E00
7E00
7E00
7C00
7C00
FC00
FC00
F800
F800
FFE0
FFE0
FFE0
FFE0
ENDCHAR
STARTCHAR 005B
ENCODING 91
SWIDTH 220 0
DWIDTH 11 0
BBX 9 41 1 -5
BITMAP
FF80
FF80
FF80
F800
F800
F800
F800
F800
F800
F800
F800
F800
F800
F800
F800
F800
F800
F800
F800
F800
F800
F800
F800
F800
F800
F800
F800
F800
F800
F800
F800
F800
F800
F800
F800
F800
F800
F800
FF80
FF80
FF80
ENDCHAR
STARTCHAR 005C
ENCODING 92
SWIDTH 280 0
DWIDTH 14 0
BBX 20 36 -3 0
BITMAP
E00000
700000
700000
300000
380000
180000
1C0000
0C0000
0E0000
060000
070000
030000
038000
038000
01C000
01C000
00E000
00E000
007000
007000
003000
003800
001800
001C00
000C00
000E00
000600
000700
000700
000380
000380
0001C0
0001C0
0000E0
0000E0
000070
ENDCHAR
STARTCHAR 005D
ENCODING 93
SWIDTH 220 0
DWIDTH 11 0
BBX 9 41 1 -5
BITMAP
FF80
FF80
FF80
0F80
0F80
0F80
0F80
0F80
0F80
0F80
0F80
0F80
0F80
0F80
0F80
0F80
0F80
0F80
0F80
0F80
0F80
0F80
0F80
0F80
0F80
0F80
0F80
0F80
0F80
0F80
0F80
0F80
0F80
0F80
0F80
0F80
0F80
0F80
FF80
FF80
FF80
ENDCHAR
STARTCHAR 005E
ENCODING 94
SWIDTH 500 0
DWIDTH 25 0
BBX 25 20 0 16
BITMAP
003E0000
003E0000
007F0000
007F0000
00FF8000
00F78000
01F7C000
01E3C000
03E3E000
03C1E000
07C1F000
0780F000
0F80F800
0F007800
1F007C00
1E003C00
3E003E00
3C001E00
7C001F00
F8000F80
ENDCHAR
STARTCHAR 005F
ENCODING 95
SWIDTH 500 0
DWIDTH 25 0
BBX 25 3 0 -5
BITMAP
FFFFFF80
FFFFFF80
FFFFFF80
ENDCHAR
STARTCHAR 0060
ENCODING 96
SWIDTH 140 0
DWIDTH 7 0
BBX 10 9 -3 32
BITMAP
F800
7C00
3E00
1E00
0F00
0700
0780
0380
01C0
ENDCHAR
STARTCHAR 0061
ENCODING 97
SWIDTH 280 0
DWIDTH 14 0
BBX 12 29 1 0
BITMAP
1F80
7FC0
FFE0
FBF0
F9F0
F9F0
F9F0
F9F0
F9F0
FBF0
07F0
0FF0
3FF0
7FF0
FDF0
F9F0
F9F0
F9F0
F9F0
F9F0
F9F0
F9F0
F9F0
F9F0
F9F0
FFF0
FFF0
FFF0
7DF0
ENDCHAR
STARTCHAR 0062
ENCODING 98
SWIDTH 280 0
DWIDTH 14 0
BBX 12 36 1 0
BITMAP
F800
F800
F800
F800
F800
F800
F800
FBC0
FFE0
FFF0
FFF0
F9F0
F9F0
F9F0
F9F0
F9F0
F9F0
F9F0
F9F0
F9F0
F9F0
F9F0
F9F0
F9F0
F9F0
F9F0
F9F0
F9F0
F9F0
F9F0
F9F0
F9F0
FFF0
FFF0
FFE0
FBC0
ENDCHAR
STARTCHAR 0063
ENCODING 99
SWIDTH 280 0
DWIDTH 14 0
BBX 12 29 1 0
BITMAP
1F80
7FE0
7FE0
FFF0
F9F0
F9F0
F9F0
F9F0
F9F0
F9F0
F800
F800
F800
F800
F800
F800
F800
F800
F9F0
F9F0
F9F0
F9F0
F9F0
F9F0
F9F0
F9F0
7FE0
7FE0
1F80
ENDCHAR
STARTCHAR 0064
ENCODING 100
SWIDTH 280 0
DWIDTH 14 0
BBX 12 36 1 0
BITMAP
01F0
01F0
01F0
01F0
01F0
01F0
01F0
39F0
FFF0
FFF0
FFF0
F9F0
F9F0
F9F0
F9F0
F9F0
F9F0
F9F0
F9F0
F9F0
F9F0
F9F0
F9F0
F9F0
F9F0
F9F0
F9F0
F9F0
F9F0
F9F0
F9F0
F9F0
FFF0
FFF0
FFF0
3DF0
ENDCHAR
STARTCHAR 0065
ENCODING 101
SWIDTH 280 0
DWIDTH 14 0
BBX 12 29 1 0
BITMAP
1F80
7FE0
7FE0
F9F0
F9F0
F9F0
F9F0
F9F0
F9F0
F9F0
F9F0
F9F0
FFF0
FFF0
FFF0
F800
F800
F800
F9F0
F9F0
F9F0
F9F0
F9F0
F9F0
F9F0
F9F0
7FE0
7FE0
1F80
ENDCHAR
STARTCHAR 0066
ENCODING 102
SWIDTH 160 0
DWIDTH 8 0
BBX 8 36 0 0
BITMAP
1F
3F
3F
3F
3E
3E
3E
FF
FF
FF
FF
3E
3E
3E
3E
3E
3E
3E
3E
3E
3E
3E
3E
3E
3E
3E
3E
3E
3E
3E
3E
3E
3E
3E
3E
3E
ENDCHAR
STARTCHAR 0067
ENCODING 103
SWIDTH 280 0
DWIDTH 14 0
BBX 12 35 1 -6
BITMAP
39F0
7FF0
FFF0
FFF0
F9F0
F9F0
F9F0
F9F0
F9F0
F9F0
F9F0
F9F0
F9F0
F9F0
F9F0
F9F0
F9F0
F9F0
F9F0
F9F0
F9F0
FFF0
FFF0
FFF0
7DF0
11F0
01F0
F9F0
F9F0
F9F0
F9F0
FBF0
7FE0
7FE0
1F80
ENDCHAR
STARTCHAR 0068
ENCODING 104
SWIDTH 280 0
DWIDTH 14 0
BBX 12 36 1 0
BITMAP
F800
F800
F800
F800
F800
F800
F800
FBC0
FFE0
FFF0
FFF0
F9F0
F9F0
F9F0
F9F0
F9F0
F9F0
F9F0
F9F0
F9F0
F9F0
F9F0
F9F0
F9F0
F9F0
F9F0
F9F0
F9F0
F9F0
F9F0
F9F0
F9F0
F9F0
F9F0
F9F0
F9F0
ENDCHAR
STARTCHAR 0069
ENCODING 105
SWIDTH 140 0
DWIDTH 7 0
BBX 5 36 1 0
BITMAP
F8
F8
F8
F8
00
00
00
F8
F8
F8
F8
F8
F8
F8
F8
F8
F8
F8
F8
F8
F8
F8
F8
F8
F8
F8
F8
F8
F8
F8
F8
F8
F8
F8
F8
F8
ENDCHAR
STARTCHAR 006A
ENCODING 106
SWIDTH 140 0
DWIDTH 7 0
BBX 7 42 -1 -6
BITMAP
3E
3E
3E
3E
00
00
00
3E
3E
3E
3E
3E
3E
3E
3E
3E
3E
3E
3E
3E
3E
3E
3E
3E
3E
3E
3E
3E
3E
3E
3E
3E
3E
3E
3E
3E
3E
3E
FE
FE
FC
F8
ENDCHAR
STARTCHAR 006B
ENCODING 107
SWIDTH 280 0
DWIDTH 14 0
BBX 13 36 1 0
BITMAP
F800
F800
F800
F800
F800
F800
F800
F8F8
F9F0
F9F0
F9F0
F9F0
F9E0
FBE0
FBE0
FBE0
FBE0
FBC0
FFC0
FFC0
FFC0
FFC0
FFC0
FBC0
FBE0
FBE0
FBE0
FBE0
FBE0
F9E0
F9F0
F9F0
F9F0
F9F0
F9F0
F8F8
ENDCHAR
STARTCHAR 006C
ENCODING 108
SWIDTH 140 0
DWIDTH 7 0
BBX 5 36 1 0
BITMAP
F8
F8
F8
F8
F8
F8
F8
F8
F8
F8
F8
F8
F8
F8
F8
F8
F8
F8
F8
F8
F8
F8
F8
F8
F8
F8
F8
F8
F8
F8
F8
F8
F8
F8
F8
F8
ENDCHAR
STARTCHAR 006D
ENCODING 109
SWIDTH 420 0
DWIDTH 21 0
BBX 19 29 1 0
BITMAP
F9E7C0
FBFFE0
FFFFE0
FFFFE0
F9F3E0
F9F3E0
F9F3E0
F9F3E0
F9F3E0
F9F3E0
F9F3E0
F9F3E0
F9F3E0
F9F3E0
F9F3E0
F9F3E0
F9F3E0
F9F3E0
F9F3E0
F9F3E0
F9F3E0
F9F3E0
F9F3E0
F9F3E0
F9F3E0
F9F3E0
F9F3E0
F9F3E0
F9F3E0
ENDCHAR
STARTCHAR 006E
ENCODING 110
SWIDTH 280 0
DWIDTH 14 0
BBX 12 29 1 0
BITMAP
FBC0
FFE0
FFF0
FFF0
F9F0
F9F0
F9F0
F9F0
F9F0
F9F0
F9F0
F9F0
F9F0
F9F0
F9F0
F9F0
F9F0
F9F0
F9F0
F9F0
F9F0
F9F0
F9F0
F9F0
F9F0
F9F0
F9F0
F9F0
F9F0
ENDCHAR
STARTCHAR 006F
ENCODING 111
SWIDTH 280 0
DWIDTH 14 0
BBX 12 29 1 0
BITMAP
1F80
7FC0
7FE0
F9F0
F9F0
F9F0
F9F0
F9F0
F9F0
F9F0
F9F0
F9F0
F9F0
F9F0
F9F0
F9F0
F9F0
F9F0
F9F0
F9F0
F9F0
F9F0
F9F0
F9F0
F9F0
F9F0
7FE0
7FE0
1F80
ENDCHAR
STARTCHAR 0070
ENCODING 112
SWIDTH 280 0
DWIDTH 14 0
BBX 12 35 1 -6
BITMAP
FBC0
FFE0
FFF0
FFF0
F9F0
F9F0
F9F0
F9F0
F9F0
F9F0
F9F0
F9F0
F9F0
F9F0
F9F0
F9F0
F9F0
F9F0
F9F0
F9F0
F9F0
F9F0
F9F0
F9F0
F9F0
FFF0
FFF0
FFE0
FBC0
F800
F800
F800
F800
F800
F800
ENDCHAR
STARTCHAR 0071
ENCODING 113
SWIDTH 280 0
DWIDTH 14 0
BBX 12 35 1 -6
BITMAP
39F0
FFF0
FFF0
FFF0
F9F0
F9F0
F9F0
F9F0
F9F0
F9F0
F9F0
F9F0
F9F0
F9F0
F9F0
F9F0
F9F0
F9F0
F9F0
F9F0
F9F0
F9F0
F9F0
F9F0
F9F0
FFF0
FFF0
FFF0
7DF0
01F0
01F0
01F0
01F0
01F0
01F0
ENDCHAR
STARTCHAR 0072
ENCODING 114
SWIDTH 280 0
DWIDTH 14 0
BBX 12 29 1 0
BITMAP
FBC0
FFE0
FFF0
FFF0
F9F0
F9F0
F9F0
F9F0
F9F0
F9F0
F9F0
F9F0
F9F0
F9F0
F9F0
F800
F800
F800
F800
F800
F800
F800
F800
F800
F800
F800
F800
F800
F800
ENDCHAR
STARTCHAR 0073
ENCODING 115
SWIDTH 280 0
DWIDTH 14 0
BBX 12 29 1 0
BITMAP
1F80
7FE0
7FE0
FFF0
F9F0
F9F0
F9F0
F9F0
F9F0
FDF0
FE00
7F00
3F00
3F80
1FC0
0FE0
07E0
03F0
FBF0
F9F0
F9F0
F9F0
F9F0
F9F0
F9F0
FFF0
FFE0
7FE0
1F80
ENDCHAR
STARTCHAR 0074
ENCODING 116
SWIDTH 160 0
DWIDTH 8 0
BBX 8 34 0 0
BITMAP
3E
3E
3E
3E
3E
FF
FF
FF
FF
3E
3E
3E
3E
3E
3E
3E
3E
3E
3E
3E
3E
3E
3E
3E
3E
3E
3E
3E
3E
3E
3F
3F
3F
1F
ENDCHAR
STARTCHAR 0075
ENCODING 117
SWIDTH 280 0
DWIDTH 14 0
BBX 12 29 1 0
BITMAP
F9F0
F9F0
F9F0
F9F0
F9F0
F9F0
F9F0
F9F0
F9F0
F9F0
F9F0
F9F0
F9F0
F9F0
F9F0
F9F0
F9F0
F9F0
F9F0
F9F0
F9F0
F9F0
F9F0
F9F0
F9F0
FFF0
FFF0
7FF0
7DF0
ENDCHAR
STARTCHAR 0076
ENCODING 118
SWIDTH 280 0
DWIDTH 14 0
BBX 14 29 0 0
BITMAP
F87C
F87C
F878
7878
78F8
7CF8
7CF8
7CF8
7CF8
7CF0
7CF0
3CF0
3CF0
3DF0
3DF0
3DF0
3DF0
3FE0
3FE0
1FE0
1FE0
1FE0
1FE0
1FE0
1FC0
1FC0
1FC0
0FC0
0FC0
ENDCHAR
STARTCHAR 0077
ENCODING 119
SWIDTH 440 0
DWIDTH 22 0
BBX 22 29 0 0
BITMAP
F8FC7C
F8FC7C
F8FC7C
78FC7C
78FC78
7CFC78
7CFC78
7CFCF8
7CFCF8
7CFCF8
7CFEF8
7DFEF8
3DFEF0
3DFEF0
3DEEF0
3DEEF0
3DCEF0
3DCEF0
3DCEF0
3FCEF0
3FCEF0
1FCEE0
1FCFE0
1FC7E0
1FC7E0
1FC7E0
1F87E0
1F87E0
1F87E0
ENDCHAR
STARTCHAR 0078
ENCODING 120
SWIDTH 260 0
DWIDTH 13 0
BBX 13 29 0 0
BITMAP
F8F0
78F0
7DF0
7DF0
7DF0
7DE0
3DE0
3DE0
3DE0
3FE0
3FE0
1FC0
1FC0
1FC0
1FC0
1FC0
1FC0
3FE0
3DE0
3DE0
3DE0
3DE0
7DF0
7DF0
79F0
79F0
79F0
F8F0
F8F8
ENDCHAR
STARTCHAR 0079
ENCODING 121
SWIDTH 280 0
DWIDTH 14 0
BBX 14 35 0 -6
BITMAP
F87C
F878
7878
7878
78F8
7CF8
7CF8
7CF8
7CF0
7CF0
3CF0
3CF0
3DF0
3DF0
3DF0
3DE0
3FE0
1FE0
1FE0
1FE0
1FE0
1FE0
1FE0
1FC0
0FC0
0FC0
0FC0
0FC0
0FC0
0FC0
0F80
0F80
7F80
7F80
7F00
ENDCHAR
STARTCHAR 007A
ENCODING 122
SWIDTH 220 0
DWIDTH 11 0
BBX 11 29 0 0
BITMAP
FFC0
FFC0
FFC0
03C0
07C0
07C0
07C0
0780
0F80
0F80
0F80
0F00
1F00
1F00
1F00
1E00
3E00
3E00
3E00
3E00
7C00
7C00
7C00
7C00
7800
F800
FFE0
FFE0
FFE0
ENDCHAR
STARTCHAR 007B
ENCODING 123
SWIDTH 340 0
DWIDTH 17 0
BBX 14 41 2 -5
BITMAP
00FC
03FC
07FC
07C0
0F80
0F80
0F80
0F80
0F80
0F80
0F80
0F80
0F80
0F80
0F80
0F80
0F00
1F00
7E00
FC00
F000
FC00
3E00
1F00
0F00
0F00
0F80
0F80
0F80
0F80
0F80
0F80
0F80
0F80
0F80
0F80
0F80
0780
07FC
03FC
00FC
ENDCHAR
STARTCHAR 007C
ENCODING 124
SWIDTH 220 0
DWIDTH 11 0
BBX 5 36 3 0
BITMAP
F8
F8
F8
F8
F8
F8
F8
F8
F8
F8
F8
F8
F8
F8
F8
F8
F8
F8
F8
F8
F8
F8
F8
F8
F8
F8
F8
F8
F8
F8
F8
F8
F8
F8
F8
F8
ENDCHAR
STARTCHAR 007D
ENCODING 125
SWIDTH 340 0
DWIDTH 17 0
BBX 14 41 1 -5
BITMAP
FC00
FF00
FF80
0F80
0780
0780
07C0
07C0
07C0
07C0
07C0
07C0
07C0
07C0
07C0
07C0
07C0
03E0
03F0
01FC
003C
00FC
03F0
03E0
07C0
07C0
07C0
07C0
07C0
07C0
07C0
07C0
07C0
07C0
07C0
07C0
0780
0F80
FF80
FF00
FC00
ENDCHAR
STARTCHAR 007E
ENCODING 126
SWIDTH 500 0
DWIDTH 25 0
BBX 23 7 1 11
BITMAP
0F8004
3FF00C
7FFE1E
FFFFFE
F07FFC
601FF8
4003E0
ENDCHAR
STARTCHAR 009D
ENCODING 157
SWIDTH 880 0
DWIDTH 44 0
BBX 46 36 0 0
BITMAP
000007C01F00
00001FE0FF80
00007873E1C0
0000E07781C0
0003807E01C0
0007007C01C0
000E00F80380
001C01F00700
001803E00F00
003807E01E1C
00301FC0783C
00707DC1F038
0071F9C7C030
0071E1C78000
007001C00000
007001C00000
007001C00000
007000E00000
003800E00180
003800700380
001C00700700
001E00380700
000E003C0E00
0007001C0C00
0807301E1C00
3C03F80E1800
7C03F00E3800
7803C0073000
E00180077000
E00380067000
E003800E6000
E007801CE000
600FC03CE000
783FE0F8C000
3FFCFFE0C000
0FE03F00C000
ENDCHAR
STARTCHAR 00A0
ENCODING 160
SWIDTH 760 0
DWIDTH 38 0
BBX 0 0 0 0
BITMAP
ENDCHAR
STARTCHAR 00A1
ENCODING 161
SWIDTH 200 0
DWIDTH 10 0
BBX 5 36 3 -6
BITMAP
F8
F8
F8
F8
F8
00
00
00
F8
F8
F8
F8
F8
F8
F8
F8
F8
F8
F8
F8
F8
F8
F8
F8
F8
F8
F8
F8
F8
F8
F8
F8
F8
F8
F8
F8
ENDCHAR
STARTCHAR 00A2
ENCODING 162
SWIDTH 340 0
DWIDTH 17 0
BBX 11 37 3 -4
BITMAP
00C0
01C0
01C0
01C0
1F80
7FC0
FFE0
FBE0
F1E0
F1E0
F1E0
F1E0
F1E0
F1E0
F000
F000
F000
F000
F000
F000
F000
F000
F1E0
F1E0
F1E0
F1E0
F1E0
F1E0
F1E0
FBE0
FFE0
7FC0
7F80
6000
E000
E000
E000
ENDCHAR
STARTCHAR 00A3
ENCODING 163
SWIDTH 340 0
DWIDTH 17 0
BBX 15 36 1 0
BITMAP
0FE0
3FF8
7FFC
7FFC
7C7C
FC7C
FC7C
FC7C
FC7C
FC00
FC00
7C00
7C00
7E00
7E00
7E00
3E00
FFE0
FFE0
3F00
3F00
3F00
3F00
1F00
1F00
3F00
3E00
3E00
3E00
3C00
7C00
FBC2
FFFE
FFFE
7FFE
7FFE
ENDCHAR
STARTCHAR 00A4
ENCODING 164
SWIDTH 340 0
DWIDTH 17 0
BBX 14 14 1 13
BITMAP
47CC
FFFC
3878
7038
701C
600C
E00C
E00C
600C
601C
7018
3878
7FFC
C7CC
ENDCHAR
STARTCHAR 00A5
ENCODING 165
SWIDTH 340 0
DWIDTH 17 0
BBX 16 36 0 0
BITMAP
FC1F
7C1F
7C1F
7C1F
7E3E
7E3E
3E3E
3E3E
3E7C
3F7C
1F7C
1F7C
1F78
1F78
0F78
0F78
7FFF
7FFF
07F0
07F0
07F0
07F0
3FFC
3FFC
03E0
03E0
03E0
03E0
03E0
03E0
03E0
03E0
03E0
03E0
03E0
03E0
ENDCHAR
STARTCHAR 00A6
ENCODING 166
SWIDTH 220 0
DWIDTH 11 0
BBX 5 36 3 0
BITMAP
F8
F8
F8
F8
F8
F8
F8
F8
F8
F8
F8
F8
F8
00
00
00
00
00
00
00
00
00
00
F8
F8
F8
F8
F8
F8
F8
F8
F8
F8
F8
F8
F8
ENDCHAR
STARTCHAR 00A7
ENCODING 167
SWIDTH 340 0
DWIDTH 17 0
BBX 15 42 1 -6
BITMAP
0FE0
1FF0
3FF8
3C78
7C7C
7C7C
7C7C
7C7C
7C00
3C00
3E00
3F00
1F80
1FC0
3FE0
7FF0
79F0
F8F8
F8FC
F87C
F83C
F83C
7C3E
7E3C
3F3C
3FFC
1FF8
0FF8
07E0
03F0
01F0
00F8
00F8
7878
7878
787C
7878
7878
7C78
7FF8
3FF0
0FC0
ENDCHAR
STARTCHAR 00A8
ENCODING 168
SWIDTH 140 0
DWIDTH 7 0
BBX 11 4 -2 34
BITMAP
F1E0
F1E0
F1E0
F1E0
ENDCHAR
STARTCHAR 00A9
ENCODING 169
SWIDTH 800 0
DWIDTH 40 0
BBX 38 36 1 0
BITMAP
0001FE0000
001FFFE000
007FFFF800
00FE01FC00
03F8007F00
07E0001F80
0FC0000FC0
1F80FE07E0
1F03FF83E0
3E0FFFC1F0
3C1F83E0F0
7C1F01F0F8
7C3E00F0F8
783C007078
F87C00087C
F87C00007C
F87800007C
F87800007C
F87800007C
F87800007C
F87C00007C
F83C00007C
783C007878
783E00F0F8
7C1F00F0F8
3C0F83E0F0
3E07FFC1F0
1F03FF83E0
1F80FE07E0
0FC0000FC0
07E0001F80
03F0007F00
00FE01FC00
007FFFF800
001FFFE000
0001FE0000
ENDCHAR
STARTCHAR 00AA
ENCODING 170
SWIDTH 160 0
DWIDTH 8 0
BBX 8 17 0 19
BITMAP
7E
FF
E7
E7
E7
0F
3F
7F
F7
E7
E7
E7
E7
E7
FF
FF
77
ENDCHAR
STARTCHAR 00AB
ENCODING 171
SWIDTH 340 0
DWIDTH 17 0
BBX 15 22 1 3
BITMAP
0202
0606
0E0E
1E1E
3E3E
7E3E
FC7C
F8F8
F0F0
E0E0
C0E0
E0E0
F0F0
F8F8
FC7C
7E7E
3E3E
1E1E
0E0E
0606
0202
0202
ENDCHAR
STARTCHAR 00AC
ENCODING 172
SWIDTH 500 0
DWIDTH 25 0
BBX 25 14 0 8
BITMAP
FFFFFF80
FFFFFF80
FFFFFF80
FFFFFF80
00000F80
00000F80
00000F80
00000F80
00000F80
00000F80
00000F80
00000F80
00000F80
00000F80
ENDCHAR
STARTCHAR 00AE
ENCODING 174
SWIDTH 800 0
DWIDTH 40 0
BBX 38 36 1 0
BITMAP
0001FE0000
001FFFE000
007FFFF800
00FE01FC00
03F8007F00
07E0001F80
0FC0000FC0
1F8FFF07E0
1F0FFFC3E0
3E0E03E1F0
3C0E01E0F0
7C0E00E0F8
7C0E00F0F8
780E00F078
F80E01E07C
F80E03E07C
F80FFFC07C
F80FFF007C
F80E1C007C
F80E1E007C
F80E0E007C
F80E0F007C
780E078078
780E0780F8
7C0E03C0F8
3C0E03C0F0
3E0E01E1F0
1F0E01E3E0
1F800017E0
0FC0000FC0
07E0001F80
03F0007F00
00FE01FC00
007FFFF800
001FFFE000
0001FE0000
ENDCHAR
STARTCHAR 00AF
ENCODING 175
SWIDTH 140 0
DWIDTH 7 0
BBX 11 3 -2 34
BITMAP
FFE0
FFE0
FFE0
ENDCHAR
STARTCHAR 00B0
ENCODING 176
SWIDTH 400 0
DWIDTH 20 0
BBX 14 15 3 21
BITMAP
0FC0
1FE0
3870
7038
E01C
E01C
C00C
C00C
C00C
E01C
E01C
7038
3870
1FE0
0FC0
ENDCHAR
STARTCHAR 00B1
ENCODING 177
SWIDTH 500 0
DWIDTH 25 0
BBX 25 25 0 2
BITMAP
003E0000
003E0000
003E0000
003E0000
003E0000
003E0000
003E0000
003E0000
FFFFFF80
FFFFFF80
FFFFFF80
FFFFFF80
003E0000
003E0000
003E0000
003E0000
003E0000
003E0000
003E0000
00000000
00000000
FFFFFF80
FFFFFF80
FFFFFF80
FFFFFF80
ENDCHAR
STARTCHAR 00B2
ENCODING 178
SWIDTH 200 0
DWIDTH 10 0
BBX 9 21 1 15
BITMAP
3E00
FF00
F700
E700
E780
E780
E700
0700
0F00
0F00
1E00
1E00
3C00
7800
7800
F000
F000
F000
E000
FF00
FF00
ENDCHAR
STARTCHAR 00B3
ENCODING 179
SWIDTH 200 0
DWIDTH 10 0
BBX 9 22 1 14
BITMAP
3E00
FF00
E700
E700
E780
E780
E780
E780
0780
0700
1F00
1C00
1F00
0700
0780
E780
E780
E780
E780
E700
FF00
7E00
ENDCHAR
STARTCHAR 00B4
ENCODING 180
SWIDTH 140 0
DWIDTH 7 0
BBX 10 9 0 32
BITMAP
07C0
0F80
0F00
1F00
1E00
3C00
3800
7000
F000
ENDCHAR
STARTCHAR 00B5
ENCODING 181
SWIDTH 280 0
DWIDTH 14 0
BBX 12 35 1 -6
BITMAP
F9F0
F9F0
F9F0
F9F0
F9F0
F9F0
F9F0
F9F0
F9F0
F9F0
F9F0
F9F0
F9F0
F9F0
F9F0
F9F0
F9F0
F9F0
F9F0
F9F0
F9F0
F9F0
F9F0
F9F0
F9F0
FFF0
FFF0
FFF0
FDF0
F800
F800
F800
F800
F800
F800
ENDCHAR
STARTCHAR 00B6
ENCODING 182
SWIDTH 600 0
DWIDTH 30 0
BBX 27 45 1 -9
BITMAP
01FFFFE0
07FFFFE0
1FFFFFE0
3FFF3E00
7FFF3E00
7FFF3E00
7FFF3E00
FFFF3E00
FFFF3E00
FFFF3E00
FFFF3E00
7FFF3E00
7FFF3E00
7FFF3E00
3FFF3E00
1FFF3E00
0FFF3E00
03FF3E00
001F3E00
001F3E00
001F3E00
001F3E00
001F3E00
001F3E00
001F3E00
001F3E00
001F3E00
001F3E00
001F3E00
001F3E00
001F3E00
001F3E00
001F3E00
001F3E00
001F3E00
001F3E00
001F3E00
001F3E00
001F3E00
001F3E00
001F3E00
001F3E00
001F3E00
001F3E00
001F3E00
ENDCHAR
STARTCHAR 00B8
ENCODING 184
SWIDTH 140 0
DWIDTH 7 0
BBX 11 10 -2 -10
BITMAP
0400
0C00
0C00
0FC0
17E0
01E0
01E0
01E0
83C0
FF00
ENDCHAR
STARTCHAR 00B9
ENCODING 185
SWIDTH 200 0
DWIDTH 10 0
BBX 6 21 1 15
BITMAP
1C
1C
7C
FC
FC
3C
3C
3C
3C
3C
3C
3C
3C
3C
3C
3C
3C
3C
3C
3C
3C
ENDCHAR
STARTCHAR 00BA
ENCODING 186
SWIDTH 160 0
DWIDTH 8 0
BBX 8 17 0 19
BITMAP
3E
7F
E7
E7
E7
E7
E7
E7
E7
E7
E7
E7
E7
E7
E7
7F
3E
ENDCHAR
STARTCHAR 00BB
ENCODING 187
SWIDTH 340 0
DWIDTH 17 0
BBX 15 22 1 3
BITMAP
8080
80C0
C0C0
E0E0
F0F0
F8F8
FC7C
7E7E
3E3E
1E1E
0E0E
1E1E
3E3E
7E3E
FC7C
F8F8
F0F0
E0F0
E0E0
C0C0
8080
8100
ENDCHAR
STARTCHAR 00BC
ENCODING 188
SWIDTH 500 0
DWIDTH 25 0
BBX 23 36 1 0
BITMAP
1C01C0
1C0180
7C0180
FC0380
FC0300
1C0300
1C0700
1C0600
1C0600
1C0E00
1C0C00
1C0C00
1C1C00
1C1800
1C18F8
1C38F8
1C30F8
1C30F8
1C71F8
1C61F8
1C61B8
00E3B8
00C3B8
00C3B8
01C738
01C738
018738
038638
038FFE
030FFE
070038
070038
060038
060038
0E0038
0C0038
ENDCHAR
STARTCHAR 00BD
ENCODING 189
SWIDTH 500 0
DWIDTH 25 0
BBX 23 36 1 0
BITMAP
1C0180
1C0180
7C0380
FC0300
FC0300
3C0700
3C0600
3C0600
3C0E00
3C0C00
3C0C00
3C1C00
3C1800
3C1800
3C3800
3C38F8
3C31FC
3C73DE
3C73CE
3C63CE
3CE3CE
00E3CE
00C01E
01C01C
01C03C
01803C
018078
0380F0
0300F0
0301E0
0701E0
0603C0
0603C0
0E03C0
0C03FE
1C03FE
ENDCHAR
STARTCHAR 00BE
ENCODING 190
SWIDTH 500 0
DWIDTH 25 0
BBX 23 36 1 0
BITMAP
3E0060
7F00E0
E700C0
E780C0
E781C0
E78180
E78180
E78380
078300
078300
1F0700
1C0600
1F0600
078E00
078C00
E78C00
E79C7C
E79CFC
E798DC
F7B8DC
FF39DC
3E31DC
00719C
00739C
00639C
00E39C
00E71C
00C71C
00C7FE
01C7FE
01801C
01801C
03801C
03001C
03001C
07001C
ENDCHAR
STARTCHAR 00BF
ENCODING 191
SWIDTH 340 0
DWIDTH 17 0
BBX 12 36 2 -6
BITMAP
0F80
0F80
0F80
0F80
0F80
0000
0000
0000
0F80
0F80
0F80
0F80
0F80
0F80
0F80
0F80
1F80
1F00
3F00
3F00
7E00
7E00
7C00
FCF0
F8F0
F8F0
F8F0
F8F0
F8F0
F8F0
F8F0
F8F0
79F0
7FF0
3FE0
1FC0
ENDCHAR
STARTCHAR 00C0
ENCODING 192
SWIDTH 340 0
DWIDTH 17 0
BBX 16 47 0 0
BITMAP
3E00
1F00
0F00
0780
0780
03C0
01C0
00E0
0060
0010
0000
0FF0
0FF0
0FF8
0FF8
0FF8
0FF8
0FF8
1FF8
1F78
1F78
1F78
1F7C
1F7C
1E7C
1E7C
1E7C
3E7C
3E7C
3E7C
3E7E
3E7E
3E7E
3FFE
3FFE
3FFE
7FFE
7C3E
7C3E
7C3F
7C3F
7C3F
7C1F
7C1F
781F
F81F
F81F
ENDCHAR
STARTCHAR 00C1
ENCODING 193
SWIDTH 340 0
DWIDTH 17 0
BBX 16 47 0 0
BITMAP
003E
007C
00F8
00F0
01E0
01C0
03C0
0380
0700
0000
0000
0FF0
0FF0
0FF8
0FF8
0FF8
0FF8
0FF8
1FF8
1F78
1F78
1F78
1F7C
1F7C
1E7C
1E7C
1E7C
3E7C
3E7C
3E7C
3E7E
3E7E
3E7E
3FFE
3FFE
3FFE
7FFE
7C3E
7C3E
7C3F
7C3F
7C3F
7C1F
7C1F
781F
F81F
F81F
ENDCHAR
STARTCHAR 00C2
ENCODING 194
SWIDTH 340 0
DWIDTH 17 0
BBX 16 47 0 0
BITMAP
03E0
03E0
07E0
0770
0F70
0E38
1C38
1C1C
380C
0002
0000
0FF0
0FF0
0FF8
0FF8
0FF8
0FF8
0FF8
1FF8
1F78
1F78
1F78
1F7C
1F7C
1E7C
1E7C
1E7C
3E7C
3E7C
3E7C
3E7E
3E7E
3E7E
3FFE
3FFE
3FFE
7FFE
7C3E
7C3E
7C3F
7C3F
7C3F
7C1F
7C1F
781F
F81F
F81F
ENDCHAR
STARTCHAR 00C3
ENCODING 195
SWIDTH 340 0
DWIDTH 17 0
BBX 16 45 0 0
BITMAP
0006
0FCE
1FFC
3FF8
3060
3000
0000
0000
0000
0FF0
0FF0
0FF8
0FF8
0FF8
0FF8
0FF8
1FF8
1F78
1F78
1F78
1F7C
1F7C
1E7C
1E7C
1E7C
3E7C
3E7C
3E7C
3E7E
3E7E
3E7E
3FFE
3FFE
3FFE
7FFE
7C3E
7C3E
7C3F
7C3F
7C3F
7C1F
7C1F
781F
F81F
F81F
ENDCHAR
STARTCHAR 00C4
ENCODING 196
SWIDTH 340 0
DWIDTH 17 0
BBX 16 44 0 0
BITMAP
1E3C
1E3C
1E3C
1E3C
0000
0000
0000
0000
0FF0
0FF8
0FF8
0FF8
0FF8
0FF8
0FF8
1FF8
1F78
1F78
1F7C
1F7C
1F7C
1E7C
1E7C
1E7C
3E7C
3E7C
3E7C
3E7E
3E7E
3E7E
3FFE
3FFE
3FFE
7FFE
7C3E
7C3E
7C3F
7C3F
7C3F
7C1F
7C1F
781F
F81F
F81F
ENDCHAR
STARTCHAR 00C5
ENCODING 197
SWIDTH 340 0
DWIDTH 17 0
BBX 16 46 0 0
BITMAP
03C0
07F0
0E70
0E30
0E38
0E70
07F0
03C0
0000
0000
0FF0
0FF8
0FF8
0FF8
0FF8
0FF8
0FF8
1FF8
1F78
1F78
1F7C
1F7C
1F7C
1E7C
1E7C
1E7C
3E7C
3E7C
3E7C
3E7E
3E7E
3E7E
3FFE
3FFE
3FFE
7FFE
7C3E
7C3E
7C3F
7C3F
7C3F
7C1F
7C1F
781F
F81F
F81F
ENDCHAR
STARTCHAR 00C6
ENCODING 198
SWIDTH 480 0
DWIDTH 24 0
BBX 24 36 0 0
BITMAP
01FFFF
01FFFF
01FFFF
01FFFF
03FF80
03FF80
03FF80
03DF80
03DF80
07DF80
07DF80
07DF80
07DF80
079F80
0F9FFE
0F9FFE
0F9FFE
0F9FFE
0F9F80
1F9F80
1F1F80
1F1F80
1FFF80
1FFF80
3FFF80
3FFF80
3E1F80
3E1F80
3E1F80
7C1F80
7C1F80
7C1F80
7C1FFF
7C1FFF
F81FFF
F81FFF
ENDCHAR
STARTCHAR 00C7
ENCODING 199
SWIDTH 340 0
DWIDTH 17 0
BBX 14 46 1 -10
BITMAP
0FC0
3FF0
7FF8
7FFC
FC7C
FC7C
FC7C
FC7C
FC7C
FC7C
FC7C
FC7C
FC7C
FC00
FC00
FC00
FC00
FC00
FC00
FC00
FC00
FC00
FC7C
FC7C
FC7C
FC7C
FC7C
FC7C
FC7C
FC7C
FC7C
FC7C
7FFC
7FF8
3FF0
0FC0
0300
0200
03E0
07F0
00F0
0070
0078
0070
20E0
3F80
ENDCHAR
STARTCHAR 00C8
ENCODING 200
SWIDTH 280 0
DWIDTH 14 0
BBX 12 47 1 0
BITMAP
F800
7800
7C00
3C00
1E00
0E00
0700
0780
0380
0000
0000
7FF0
7FF0
7FF0
7FF0
7C00
7C00
7C00
7C00
7C00
7C00
7C00
7C00
7C00
7C00
7FF0
7FF0
7FF0
7FF0
7C00
7C00
7C00
7C00
7C00
7C00
7C00
7C00
7C00
7C00
7C00
7C00
7C00
7C00
7FF0
7FF0
7FF0
7FF0
ENDCHAR
STARTCHAR 00C9
ENCODING 201
SWIDTH 280 0
DWIDTH 14 0
BBX 11 47 2 0
BITMAP
03E0
03C0
0780
0780
0F00
1E00
1C00
3800
3800
0000
0000
FFE0
FFE0
FFE0
FFE0
F800
F800
F800
F800
F800
F800
F800
F800
F800
F800
FFE0
FFE0
FFE0
FFE0
F800
F800
F800
F800
F800
F800
F800
F800
F800
F800
F800
F800
F800
F800
FFE0
FFE0
FFE0
FFE0
ENDCHAR
STARTCHAR 00CA
ENCODING 202
SWIDTH 280 0
DWIDTH 14 0
BBX 12 47 1 0
BITMAP
0F00
1F80
1F80
3FC0
39C0
79E0
70E0
E070
E070
0000
0000
7FF0
7FF0
7FF0
7FF0
7C00
7C00
7C00
7C00
7C00
7C00
7C00
7C00
7C00
7C00
7FF0
7FF0
7FF0
7FF0
7C00
7C00
7C00
7C00
7C00
7C00
7C00
7C00
7C00
7C00
7C00
7C00
7C00
7C00
7FF0
7FF0
7FF0
7FF0
ENDCHAR
STARTCHAR 00CB
ENCODING 203
SWIDTH 280 0
DWIDTH 14 0
BBX 12 44 1 0
BITMAP
F9F0
F9F0
F9F0
F9F0
0000
0000
0000
0000
7FF0
7FF0
7FF0
7FF0
7C00
7C00
7C00
7C00
7C00
7C00
7C00
7C00
7C00
7C00
7FF0
7FF0
7FF0
7FF0
7C00
7C00
7C00
7C00
7C00
7C00
7C00
7C00
7C00
7C00
7C00
7C00
7C00
7C00
7FF0
7FF0
7FF0
7FF0
ENDCHAR
STARTCHAR 00CC
ENCODING 204
SWIDTH 160 0
DWIDTH 8 0
BBX 10 47 -2 0
BITMAP
F800
7C00
3C00
1E00
1E00
0F00
0700
0380
0180
0040
0000
1F80
1F80
1F80
1F80
1F80
1F80
1F80
1F80
1F80
1F80
1F80
1F80
1F80
1F80
1F80
1F80
1F80
1F80
1F80
1F80
1F80
1F80
1F80
1F80
1F80
1F80
1F80
1F80
1F80
1F80
1F80
1F80
1F80
1F80
1F80
1F80
ENDCHAR
STARTCHAR 00CD
ENCODING 205
SWIDTH 160 0
DWIDTH 8 0
BBX 9 47 1 0
BITMAP
0F80
0F80
1F00
1E00
3C00
3800
7800
7000
E000
0000
0000
FC00
FC00
FC00
FC00
FC00
FC00
FC00
FC00
FC00
FC00
FC00
FC00
FC00
FC00
FC00
FC00
FC00
FC00
FC00
FC00
FC00
FC00
FC00
FC00
FC00
FC00
FC00
FC00
FC00
FC00
FC00
FC00
FC00
FC00
FC00
FC00
ENDCHAR
STARTCHAR 00CE
ENCODING 206
SWIDTH 160 0
DWIDTH 8 0
BBX 13 47 -2 0
BITMAP
0F00
0F80
1F80
1FC0
3DC0
38E0
70E0
6070
E030
0008
0000
1F80
1F80
1F80
1F80
1F80
1F80
1F80
1F80
1F80
1F80
1F80
1F80
1F80
1F80
1F80
1F80
1F80
1F80
1F80
1F80
1F80
1F80
1F80
1F80
1F80
1F80
1F80
1F80
1F80
1F80
1F80
1F80
1F80
1F80
1F80
1F80
ENDCHAR
STARTCHAR 00CF
ENCODING 207
SWIDTH 160 0
DWIDTH 8 0
BBX 12 44 -2 0
BITMAP
F9F0
F9F0
F9F0
F9F0
0000
0000
0000
0000
1F80
1F80
1F80
1F80
1F80
1F80
1F80
1F80
1F80
1F80
1F80
1F80
1F80
1F80
1F80
1F80
1F80
1F80
1F80
1F80
1F80
1F80
1F80
1F80
1F80
1F80
1F80
1F80
1F80
1F80
1F80
1F80
1F80
1F80
1F80
1F80
ENDCHAR
STARTCHAR 00D0
ENCODING 208
SWIDTH 340 0
DWIDTH 17 0
BBX 15 36 0 0
BITMAP
7FE0
7FF8
7FFC
7FFE
7E7E
7E3E
7E3E
7E3E
7E3E
7E3E
7E3E
7E3E
7E3E
7E3E
7E3E
7E3E
FFBE
FFBE
FFBE
FFBE
7E3E
7E3E
7E3E
7E3E
7E3E
7E3E
7E3E
7E3E
7E3E
7E3E
7E3E
7E7E
7FFE
7FFC
7FF8
7FF0
ENDCHAR
STARTCHAR 00D1
ENCODING 209
SWIDTH 380 0
DWIDTH 19 0
BBX 16 45 2 0
BITMAP
0006
1F9C
3FFC
3FF8
3060
6000
0000
0000
0000
FF0F
FF0F
FF0F
FF0F
FF0F
FF0F
FF0F
FF8F
FF8F
FF8F
FF8F
F78F
F78F
F7CF
F7CF
F7CF
F7CF
F7CF
F3CF
F3CF
F3EF
F3EF
F3EF
F3EF
F3EF
F1EF
F1EF
F1EF
F1EF
F1EF
F1EF
F1FF
F0FF
F0FF
F0FF
F0FF
ENDCHAR
STARTCHAR 00D2
ENCODING 210
SWIDTH 340 0
DWIDTH 17 0
BBX 14 47 1 0
BITMAP
7C00
3E00
1E00
1F00
0F00
0780
0380
03C0
01C0
00E0
0000
0FC0
3FF0
7FF8
7FFC
FC7C
FC7C
FC7C
FC7C
FC7C
FC7C
FC7C
FC7C
FC7C
FC7C
FC7C
FC7C
FC7C
FC7C
FC7C
FC7C
FC7C
FC7C
FC7C
FC7C
FC7C
FC7C
FC7C
FC7C
FC7C
FC7C
FC7C
FC7C
7FFC
7FF8
3FF0
0FC0
ENDCHAR
STARTCHAR 00D3
ENCODING 211
SWIDTH 340 0
DWIDTH 17 0
BBX 14 47 1 0
BITMAP
007C
00F8
00F0
01E0
01C0
03C0
0380
0700
0700
0E00
0000
0FC0
3FF0
7FF8
7FFC
FC7C
FC7C
FC7C
FC7C
FC7C
FC7C
FC7C
FC7C
FC7C
FC7C
FC7C
FC7C
FC7C
FC7C
FC7C
FC7C
FC7C
FC7C
FC7C
FC7C
FC7C
FC7C
FC7C
FC7C
FC7C
FC7C
FC7C
FC7C
7FFC
7FF8
3FF0
0FC0
ENDCHAR
STARTCHAR 00D4
ENCODING 212
SWIDTH 340 0
DWIDTH 17 0
BBX 14 47 1 0
BITMAP
07C0
07C0
0FC0
0EE0
1EE0
1C70
3C70
3838
7038
701C
0000
0FC0
3FF0
7FF8
7FFC
FC7C
FC7C
FC7C
FC7C
FC7C
FC7C
FC7C
FC7C
FC7C
FC7C
FC7C
FC7C
FC7C
FC7C
FC7C
FC7C
FC7C
FC7C
FC7C
FC7C
FC7C
FC7C
FC7C
FC7C
FC7C
FC7C
FC7C
FC7C
7FFC
7FF8
3FF0
0FC0
ENDCHAR
STARTCHAR 00D5
ENCODING 213
SWIDTH 340 0
DWIDTH 17 0
BBX 14 45 1 0
BITMAP
000C
1F9C
3FF8
3FF8
77F0
6000
0000
0000
0000
0FC0
3FF0
7FF8
7FFC
FC7C
FC7C
FC7C
FC7C
FC7C
FC7C
FC7C
FC7C
FC7C
FC7C
FC7C
FC7C
FC7C
FC7C
FC7C
FC7C
FC7C
FC7C
FC7C
FC7C
FC7C
FC7C
FC7C
FC7C
FC7C
FC7C
FC7C
FC7C
7FFC
7FF8
3FF0
0FC0
ENDCHAR
STARTCHAR 00D6
ENCODING 214
SWIDTH 340 0
DWIDTH 17 0
BBX 14 44 1 0
BITMAP
3C78
3C78
3C78
3C78
0000
0000
0000
0000
0FC0
3FF0
7FF8
7FFC
FC7C
FC7C
FC7C
FC7C
FC7C
FC7C
FC7C
FC7C
FC7C
FC7C
FC7C
FC7C
FC7C
FC7C
FC7C
FC7C
FC7C
FC7C
FC7C
FC7C
FC7C
FC7C
FC7C
FC7C
FC7C
FC7C
FC7C
FC7C
7FFC
7FF8
3FF0
0FC0
ENDCHAR
STARTCHAR 00D7
ENCODING 215
SWIDTH 500 0
DWIDTH 25 0
BBX 25 25 0 1
BITMAP
10000400
38000E00
7C001F00
FE003F80
3F007E00
1F80FC00
1FC1F800
0FE3F800
07F7F000
03FFE000
01FFC000
00FF8000
007F0000
00FF8000
01FFC000
03FFE000
07F7F000
0FE3F800
1FC1FC00
3F80FE00
7F007F00
FE003F80
7C001F00
38000E00
10000400
ENDCHAR
STARTCHAR 00D8
ENCODING 216
SWIDTH 340 0
DWIDTH 17 0
BBX 17 39 0 -2
BITMAP
000380
07E700
1FFF00
3FFE00
3FFE00
7E3E00
7E3E00
7E3E00
7E3E00
7E3E00
7E3E00
7E3E00
7E7E00
7E7E00
7E7E00
7EFE00
7EFE00
7EFE00
7FFE00
7FFE00
7FBE00
7FBE00
7FBE00
7F3E00
7F3E00
7F3E00
7E3E00
7E3E00
7E3E00
7E3E00
7E3E00
7E3E00
7E3E00
3FFE00
7FFC00
7FF800
77E000
E00000
E00000
ENDCHAR
STARTCHAR 00D9
ENCODING 217
SWIDTH 340 0
DWIDTH 17 0
BBX 14 47 1 0
BITMAP
7C00
3E00
1E00
0F00
0F00
0780
0380
01C0
00C0
0020
0000
FC7C
FC7C
FC7C
FC7C
FC7C
FC7C
FC7C
FC7C
FC7C
FC7C
FC7C
FC7C
FC7C
FC7C
FC7C
FC7C
FC7C
FC7C
FC7C
FC7C
FC7C
FC7C
FC7C
FC7C
FC7C
FC7C
FC7C
FC7C
FC7C
FC7C
FC7C
7C7C
7FFC
7FF8
3FF0
0FC0
ENDCHAR
STARTCHAR 00DA
ENCODING 218
SWIDTH 340 0
DWIDTH 17 0
BBX 14 47 1 0
BITMAP
007C
00F8
01F0
01E0
03C0
0380
0780
0700
0E00
0000
0000
FC7C
FC7C
FC7C
FC7C
FC7C
FC7C
FC7C
FC7C
FC7C
FC7C
FC7C
FC7C
FC7C
FC7C
FC7C
FC7C
FC7C
FC7C
FC7C
FC7C
FC7C
FC7C
FC7C
FC7C
FC7C
FC7C
FC7C
FC7C
FC7C
FC7C
FC7C
7C7C
7FFC
7FF8
3FF0
0FC0
ENDCHAR
STARTCHAR 00DB
ENCODING 219
SWIDTH 340 0
DWIDTH 17 0
BBX 14 47 1 0
BITMAP
07C0
07C0
0FC0
0EE0
1EE0
1C70
3870
3838
7018
0004
0000
FC7C
FC7C
FC7C
FC7C
FC7C
FC7C
FC7C
FC7C
FC7C
FC7C
FC7C
FC7C
FC7C
FC7C
FC7C
FC7C
FC7C
FC7C
FC7C
FC7C
FC7C
FC7C
FC7C
FC7C
FC7C
FC7C
FC7C
FC7C
FC7C
FC7C
FC7C
7C7C
7FFC
7FF8
3FF0
0FC0
ENDCHAR
STARTCHAR 00DC
ENCODING 220
SWIDTH 340 0
DWIDTH 17 0
BBX 14 44 1 0
BITMAP
3C78
3C78
3C78
3C78
0000
0000
0000
0000
FC7C
FC7C
FC7C
FC7C
FC7C
FC7C
FC7C
FC7C
FC7C
FC7C
FC7C
FC7C
FC7C
FC7C
FC7C
FC7C
FC7C
FC7C
FC7C
FC7C
FC7C
FC7C
FC7C
FC7C
FC7C
FC7C
FC7C
FC7C
FC7C
FC7C
FC7C
7C7C
7FFC
7FF8
3FF0
0FC0
ENDCHAR
STARTCHAR 00DD
ENCODING 221
SWIDTH 340 0
DWIDTH 17 0
BBX 16 47 0 0
BITMAP
003E
007C
00F8
00F0
01E0
01C0
03C0
0380
0700
0000
0000
FC1F
7C1F
7C1F
7C1F
7E3E
3E3E
3E3E
3E3E
3F7C
1F7C
1F7C
1F7C
1F78
1F78
0F78
0FF8
0FF0
0FF0
07F0
07F0
07E0
07E0
03E0
03E0
03E0
03E0
03E0
03E0
03E0
03E0
03E0
03E0
03E0
03E0
03E0
03E0
ENDCHAR
STARTCHAR 00DE
ENCODING 222
SWIDTH 340 0
DWIDTH 17 0
BBX 14 36 1 0
BITMAP
FC00
FC00
FC00
FC00
FC00
FC00
FFC0
FFF0
FFF8
FFFC
FCFC
FC7C
FC7C
FC7C
FC7C
FC7C
FC7C
FC7C
FC7C
FC7C
FC7C
FC7C
FC7C
FCFC
FFFC
FFF8
FFF0
FFE0
FC00
FC00
FC00
FC00
FC00
FC00
FC00
FC00
ENDCHAR
STARTCHAR 00DF
ENCODING 223
SWIDTH 280 0
DWIDTH 14 0
BBX 12 36 1 0
BITMAP
1F80
3FE0
7FE0
FFE0
F9F0
F9F0
F9F0
F9F0
F9F0
F9F0
F9F0
F9F0
F9F0
FBE0
FBE0
FBC0
FBE0
F9F0
F9F0
F9F0
F9F0
F9F0
F9F0
F9F0
F9F0
F9F0
F9F0
F9F0
F9F0
F9F0
F9F0
F9F0
FBF0
FBF0
FBE0
FBC0
ENDCHAR
STARTCHAR 00E0
ENCODING 224
SWIDTH 280 0
DWIDTH 14 0
BBX 12 41 1 0
BITMAP
F800
7800
7C00
3C00
1E00
0E00
0F00
0700
0380
0000
0000
0000
1F80
7FC0
FFE0
FBF0
F9F0
F9F0
F9F0
F9F0
F9F0
FBF0
07F0
0FF0
3FF0
7FF0
FDF0
F9F0
F9F0
F9F0
F9F0
F9F0
F9F0
F9F0
F9F0
F9F0
F9F0
FFF0
FFF0
FFF0
7DF0
ENDCHAR
STARTCHAR 00E1
ENCODING 225
SWIDTH 280 0
DWIDTH 14 0
BBX 12 41 1 0
BITMAP
01F0
01E0
03E0
03C0
0780
0700
0E00
0E00
1C00
0000
0000
0000
1F80
7FC0
FFE0
FBF0
F9F0
F9F0
F9F0
F9F0
F9F0
FBF0
07F0
0FF0
3FF0
7FF0
FDF0
F9F0
F9F0
F9F0
F9F0
F9F0
F9F0
F9F0
F9F0
F9F0
F9F0
FFF0
FFF0
FFF0
7DF0
ENDCHAR
STARTCHAR 00E2
ENCODING 226
SWIDTH 280 0
DWIDTH 14 0
BBX 12 41 1 0
BITMAP
0F00
1F80
1F80
3FC0
39C0
79C0
70E0
E060
E070
0000
0000
0000
1F80
7FC0
FFE0
FBF0
F9F0
F9F0
F9F0
F9F0
F9F0
FBF0
07F0
0FF0
3FF0
7FF0
FDF0
F9F0
F9F0
F9F0
F9F0
F9F0
F9F0
F9F0
F9F0
F9F0
F9F0
FFF0
FFF0
FFF0
7DF0
ENDCHAR
STARTCHAR 00E3
ENCODING 227
SWIDTH 280 0
DWIDTH 14 0
BBX 14 39 0 0
BITMAP
000C
1F18
3FF8
7FF0
61E0
4000
8000
0000
0000
0000
0FC0
3FE0
7FF0
7DF8
7CF8
7CF8
7CF8
7CF8
7CF8
7DF8
03F8
07F8
1FF8
3FF8
7EF8
7CF8
7CF8
7CF8
7CF8
7CF8
7CF8
7CF8
7CF8
7CF8
7CF8
7FF8
7FF8
7FF8
3EF8
ENDCHAR
STARTCHAR 00E4
ENCODING 228
SWIDTH 280 0
DWIDTH 14 0
BBX 12 38 1 0
BITMAP
F9F0
F9F0
F9F0
F9F0
0000
0000
0000
0000
0000
1F80
7FC0
FFE0
FBF0
F9F0
F9F0
F9F0
F9F0
F9F0
FBF0
07F0
0FF0
3FF0
7FF0
FDF0
F9F0
F9F0
F9F0
F9F0
F9F0
F9F0
F9F0
F9F0
F9F0
F9F0
FFF0
FFF0
FFF0
7DF0
ENDCHAR
STARTCHAR 00E5
ENCODING 229
SWIDTH 280 0
DWIDTH 14 0
BBX 12 40 1 0
BITMAP
0F00
1F80
39C0
30C0
30C0
39C0
1F80
0F00
0000
0000
0000
1F80
7FC0
FFE0
FBF0
F9F0
F9F0
F9F0
F9F0
F9F0
FBF0
07F0
0FF0
3FF0
7FF0
FDF0
F9F0
F9F0
F9F0
F9F0
F9F0
F9F0
F9F0
F9F0
F9F0
F9F0
FFF0
FFF0
FFF0
7DF0
ENDCHAR
STARTCHAR 00E6
ENCODING 230
SWIDTH 420 0
DWIDTH 21 0
BBX 19 29 1 0
BITMAP
1FBF00
7FFFC0
7FFFC0
FDFBE0
F9F3E0
F9F3E0
F9F3E0
F9F3E0
F9F3E0
FBF3E0
07F3E0
0FF3E0
3FFFE0
7FFFE0
FDFFE0
F9F000
F9F000
F9F000
F9F3E0
F9F3E0
F9F3E0
F9F3E0
F9F3E0
F9F3E0
F9F3E0
FFFBE0
FEFFE0
7EFFC0
7C3F00
ENDCHAR
STARTCHAR 00E7
ENCODING 231
SWIDTH 280 0
DWIDTH 14 0
BBX 12 39 1 -10
BITMAP
1F80
7FE0
7FE0
FFF0
F9F0
F9F0
F9F0
F9F0
F9F0
F9F0
F800
F800
F800
F800
F800
F800
F800
F800
F9F0
F9F0
F9F0
F9F0
F9F0
F9F0
F9F0
F9F0
7FE0
7FE0
1F80
0400
0400
0F80
0FC0
03E0
01E0
01E0
01E0
43C0
7F00
ENDCHAR
STARTCHAR 00E8
ENCODING 232
SWIDTH 280 0
DWIDTH 14 0
BBX 12 41 1 0
BITMAP
F800
7800
7C00
3C00
1E00
0E00
0700
0700
0380
0000
0000
0000
1F80
7FE0
7FE0
F9F0
F9F0
F9F0
F9F0
F9F0
F9F0
F9F0
F9F0
F9F0
FFF0
FFF0
FFF0
F800
F800
F800
F9F0
F9F0
F9F0
F9F0
F9F0
F9F0
F9F0
F9F0
7FE0
7FE0
1F80
ENDCHAR
STARTCHAR 00E9
ENCODING 233
SWIDTH 280 0
DWIDTH 14 0
BBX 12 41 1 0
BITMAP
01F0
01E0
03E0
03C0
0780
0F00
0E00
1E00
1C00
0000
0000
0000
1F80
7FE0
7FE0
F9F0
F9F0
F9F0
F9F0
F9F0
F9F0
F9F0
F9F0
F9F0
FFF0
FFF0
FFF0
F800
F800
F800
F9F0
F9F0
F9F0
F9F0
F9F0
F9F0
F9F0
F9F0
7FE0
7FE0
1F80
ENDCHAR
STARTCHAR 00EA
ENCODING 234
SWIDTH 280 0
DWIDTH 14 0
BBX 12 41 1 0
BITMAP
0F00
1F80
1F80
3FC0
39C0
79E0
70E0
E070
E070
0000
0000
0000
1F80
7FE0
7FE0
F9F0
F9F0
F9F0
F9F0
F9F0
F9F0
F9F0
F9F0
F9F0
FFF0
FFF0
FFF0
F800
F800
F800
F9F0
F9F0
F9F0
F9F0
F9F0
F9F0
F9F0
F9F0
7FE0
7FE0
1F80
ENDCHAR
STARTCHAR 00EB
ENCODING 235
SWIDTH 280 0
DWIDTH 14 0
BBX 12 38 1 0
BITMAP
F9F0
F9F0
F9F0
F9F0
0000
0000
0000
0000
0600
3FC0
7FE0
FFF0
F9F0
F9F0
F9F0
F9F0
F9F0
F9F0
F9F0
F9F0
F9F0
FFF0
FFF0
FFF0
F800
F800
F800
F9F0
F9F0
F9F0
F9F0
F9F0
F9F0
F9F0
F9F0
7FE0
7FE0
1F80
ENDCHAR
STARTCHAR 00EC
ENCODING 236
SWIDTH 140 0
DWIDTH 7 0
BBX 10 41 -3 0
BITMAP
F800
7C00
3E00
1E00
0F00
0700
0780
0380
01C0
0000
0000
0000
0F80
0F80
0F80
0F80
0F80
0F80
0F80
0F80
0F80
0F80
0F80
0F80
0F80
0F80
0F80
0F80
0F80
0F80
0F80
0F80
0F80
0F80
0F80
0F80
0F80
0F80
0F80
0F80
0F80
ENDCHAR
STARTCHAR 00ED
ENCODING 237
SWIDTH 140 0
DWIDTH 7 0
BBX 10 41 0 0
BITMAP
07C0
0F80
0F00
1F00
1E00
3C00
3800
7000
6000
8000
0000
0000
7C00
7C00
7C00
7C00
7C00
7C00
7C00
7C00
7C00
7C00
7C00
7C00
7C00
7C00
7C00
7C00
7C00
7C00
7C00
7C00
7C00
7C00
7C00
7C00
7C00
7C00
7C00
7C00
7C00
ENDCHAR
STARTCHAR 00EE
ENCODING 238
SWIDTH 140 0
DWIDTH 7 0
BBX 13 41 -3 0
BITMAP
0780
0F80
0FC0
1FC0
1DE0
38E0
3870
7070
6038
8000
0000
0000
0F80
0F80
0F80
0F80
0F80
0F80
0F80
0F80
0F80
0F80
0F80
0F80
0F80
0F80
0F80
0F80
0F80
0F80
0F80
0F80
0F80
0F80
0F80
0F80
0F80
0F80
0F80
0F80
0F80
ENDCHAR
STARTCHAR 00EF
ENCODING 239
SWIDTH 140 0
DWIDTH 7 0
BBX 11 38 -2 0
BITMAP
F1E0
F1E0
F1E0
F1E0
0000
0000
0000
0000
0000
1F00
1F00
1F00
1F00
1F00
1F00
1F00
1F00
1F00
1F00
1F00
1F00
1F00
1F00
1F00
1F00
1F00
1F00
1F00
1F00
1F00
1F00
1F00
1F00
1F00
1F00
1F00
1F00
1F00
ENDCHAR
STARTCHAR 00F0
ENCODING 240
SWIDTH 280 0
DWIDTH 14 0
BBX 12 36 1 0
BITMAP
F800
7C80
3F80
FF00
FF00
0F80
0780
1FC0
7FE0
7FE0
F9F0
F9F0
F9F0
F9F0
F9F0
F9F0
F9F0
F9F0
F9F0
F9F0
F9F0
F9F0
F9F0
F9F0
F9F0
F9F0
F9F0
F9F0
F9F0
F9F0
F9F0
F9F0
F9F0
7FE0
7FE0
1F80
ENDCHAR
STARTCHAR 00F1
ENCODING 241
SWIDTH 280 0
DWIDTH 14 0
BBX 14 39 0 0
BITMAP
000C
1F18
3FF8
7FF0
61E0
4000
8000
0000
0000
0000
7DE0
7FF0
7FF8
7FF8
7CF8
7CF8
7CF8
7CF8
7CF8
7CF8
7CF8
7CF8
7CF8
7CF8
7CF8
7CF8
7CF8
7CF8
7CF8
7CF8
7CF8
7CF8
7CF8
7CF8
7CF8
7CF8
7CF8
7CF8
7CF8
ENDCHAR
STARTCHAR 00F2
ENCODING 242
SWIDTH 280 0
DWIDTH 14 0
BBX 12 41 1 0
BITMAP
F800
7800
7C00
3C00
1E00
0E00
0700
0700
0380
0000
0000
0000
1F80
7FC0
7FE0
F9F0
F9F0
F9F0
F9F0
F9F0
F9F0
F9F0
F9F0
F9F0
F9F0
F9F0
F9F0
F9F0
F9F0
F9F0
F9F0
F9F0
F9F0
F9F0
F9F0
F9F0
F9F0
F9F0
7FE0
7FE0
1F80
ENDCHAR
STARTCHAR 00F3
ENCODING 243
SWIDTH 280 0
DWIDTH 14 0
BBX 12 41 1 0
BITMAP
01F0
01E0
03E0
03C0
0780
0F00
0E00
1E00
1C00
0000
0000
0000
1F80
7FC0
7FE0
F9F0
F9F0
F9F0
F9F0
F9F0
F9F0
F9F0
F9F0
F9F0
F9F0
F9F0
F9F0
F9F0
F9F0
F9F0
F9F0
F9F0
F9F0
F9F0
F9F0
F9F0
F9F0
F9F0
7FE0
7FE0
1F80
ENDCHAR
STARTCHAR 00F4
ENCODING 244
SWIDTH 280 0
DWIDTH 14 0
BBX 12 41 1 0
BITMAP
0F00
1F80
1F80
3FC0
39C0
79E0
70E0
E070
E070
0000
0000
0000
1F80
7FC0
7FE0
F9F0
F9F0
F9F0
F9F0
F9F0
F9F0
F9F0
F9F0
F9F0
F9F0
F9F0
F9F0
F9F0
F9F0
F9F0
F9F0
F9F0
F9F0
F9F0
F9F0
F9F0
F9F0
F9F0
7FE0
7FE0
1F80
ENDCHAR
STARTCHAR 00F5
ENCODING 245
SWIDTH 280 0
DWIDTH 14 0
BBX 14 39 0 0
BITMAP
000C
1F18
3FF8
7FF0
60E0
4000
8000
0000
0000
0000
0FC0
3FE0
3FF0
7CF8
7CF8
7CF8
7CF8
7CF8
7CF8
7CF8
7CF8
7CF8
7CF8
7CF8
7CF8
7CF8
7CF8
7CF8
7CF8
7CF8
7CF8
7CF8
7CF8
7CF8
7CF8
7CF8
3FF0
3FF0
0FC0
ENDCHAR
STARTCHAR 00F6
ENCODING 246
SWIDTH 280 0
DWIDTH 14 0
BBX 12 38 1 0
BITMAP
F9F0
F9F0
F9F0
F9F0
0000
0000
0000
0000
0600
3FC0
7FE0
FFF0
F9F0
F9F0
F9F0
F9F0
F9F0
F9F0
F9F0
F9F0
F9F0
F9F0
F9F0
F9F0
F9F0
F9F0
F9F0
F9F0
F9F0
F9F0
F9F0
F9F0
F9F0
F9F0
F9F0
7FE0
7FE0
1F80
ENDCHAR
STARTCHAR 00F7
ENCODING 247
SWIDTH 500 0
DWIDTH 25 0
BBX 25 29 0 0
BITMAP
001C0000
007F0000
007F0000
007F0000
007F0000
003F0000
001E0000
00000000
00000000
00000000
00000000
00000000
00000000
FFFFFF80
FFFFFF80
FFFFFF80
FFFFFF80
00000000
00000000
00000000
00000000
00000000
001C0000
007F0000
007F0000
007F0000
007F0000
003F0000
001C0000
ENDCHAR
STARTCHAR 00F8
ENCODING 248
SWIDTH 280 0
DWIDTH 14 0
BBX 14 33 0 -2
BITMAP
001C
001C
0FD8
3FF8
3FF8
7CF8
7CF8
7CF8
7CF8
7CF8
7CF8
7DF8
7DF8
7DF8
7FF8
7FF8
7FF8
7FF8
7FF8
7EF8
7EF8
7EF8
7CF8
7CF8
7CF8
7CF8
7CF8
7CF8
7FF0
7FF0
7FC0
E000
E000
ENDCHAR
STARTCHAR 00F9
ENCODING 249
SWIDTH 280 0
DWIDTH 14 0
BBX 12 41 1 0
BITMAP
F800
7800
7C00
3C00
1E00
0E00
0700
0700
0380
0000
0000
0000
F9F0
F9F0
F9F0
F9F0
F9F0
F9F0
F9F0
F9F0
F9F0
F9F0
F9F0
F9F0
F9F0
F9F0
F9F0
F9F0
F9F0
F9F0
F9F0
F9F0
F9F0
F9F0
F9F0
F9F0
F9F0
FFF0
FFF0
7FF0
7DF0
ENDCHAR
STARTCHAR 00FA
ENCODING 250
SWIDTH 280 0
DWIDTH 14 0
BBX 12 41 1 0
BITMAP
01F0
01E0
03E0
03C0
0780
0F00
0E00
1E00
1C00
0000
0000
0000
F9F0
F9F0
F9F0
F9F0
F9F0
F9F0
F9F0
F9F0
F9F0
F9F0
F9F0
F9F0
F9F0
F9F0
F9F0
F9F0
F9F0
F9F0
F9F0
F9F0
F9F0
F9F0
F9F0
F9F0
F9F0
FFF0
FFF0
7FF0
7DF0
ENDCHAR
STARTCHAR 00FB
ENCODING 251
SWIDTH 280 0
DWIDTH 14 0
BBX 12 41 1 0
BITMAP
0F00
1F80
1F80
3FC0
39C0
79E0
70E0
E070
E070
0000
0000
0000
F9F0
F9F0
F9F0
F9F0
F9F0
F9F0
F9F0
F9F0
F9F0
F9F0
F9F0
F9F0
F9F0
F9F0
F9F0
F9F0
F9F0
F9F0
F9F0
F9F0
F9F0
F9F0
F9F0
F9F0
F9F0
FFF0
FFF0
7FF0
7DF0
ENDCHAR
STARTCHAR 00FC
ENCODING 252
SWIDTH 280 0
DWIDTH 14 0
BBX 12 38 1 0
BITMAP
F9F0
F9F0
F9F0
F9F0
0000
0000
0000
0000
0000
F9F0
F9F0
F9F0
F9F0
F9F0
F9F0
F9F0
F9F0
F9F0
F9F0
F9F0
F9F0
F9F0
F9F0
F9F0
F9F0
F9F0
F9F0
F9F0
F9F0
F9F0
F9F0
F9F0
F9F0
F9F0
FFF0
FFF0
7FF0
7DF0
ENDCHAR
STARTCHAR 00FD
ENCODING 253
SWIDTH 280 0
DWIDTH 14 0
BBX 14 47 0 -6
BITMAP
00F8
00F0
01F0
01E0
03C0
0780
0700
0F00
0E00
0000
0000
0000
F87C
F878
7878
7878
78F8
7CF8
7CF8
7CF8
7CF0
7CF0
3CF0
3CF0
3DF0
3DF0
3DF0
3DE0
3FE0
1FE0
1FE0
1FE0
1FE0
1FE0
1FE0
1FC0
0FC0
0FC0
0FC0
0FC0
0FC0
0FC0
0F80
0F80
7F80
7F80
7F00
ENDCHAR
STARTCHAR 00FE
ENCODING 254
SWIDTH 280 0
DWIDTH 14 0
BBX 12 42 1 -6
BITMAP
F800
F800
F800
F800
F800
F800
F800
FBC0
FFE0
FFF0
FFF0
F9F0
F9F0
F9F0
F9F0
F9F0
F9F0
F9F0
F9F0
F9F0
F9F0
F9F0
F9F0
F9F0
F9F0
F9F0
F9F0
F9F0
F9F0
F9F0
F9F0
F9F0
FFF0
FFF0
FFE0
FBC0
F800
F800
F800
F800
F800
F800
ENDCHAR
STARTCHAR 00FF
ENCODING 255
SWIDTH 280 0
DWIDTH 14 0
BBX 14 44 0 -6
BITMAP
7CF8
7CF8
7CF8
7CF8
0000
0000
0000
0000
0000
F87C
F878
7878
78F8
78F8
7CF8
7CF8
7CF8
7CF0
3CF0
3CF0
3CF0
3DF0
3DF0
3DF0
3DE0
3FE0
1FE0
1FE0
1FE0
1FE0
1FE0
1FC0
1FC0
0FC0
0FC0
0FC0
0FC0
0FC0
0FC0
0F80
0F80
7F80
7F80
7F00
ENDCHAR
STARTCHAR 0131
ENCODING 305
SWIDTH 140 0
DWIDTH 7 0
BBX 5 29 1 0
BITMAP
F8
F8
F8
F8
F8
F8
F8
F8
F8
F8
F8
F8
F8
F8
F8
F8
F8
F8
F8
F8
F8
F8
F8
F8
F8
F8
F8
F8
F8
ENDCHAR
STARTCHAR 0141
ENCODING 321
SWIDTH 280 0
DWIDTH 14 0
BBX 14 36 0 0
BITMAP
3E00
3E00
3E00
3E00
3E00
3E00
3E00
3E00
3E00
3E00
3E00
3E40
3EC0
3FC0
3FC0
3FC0
3F80
7F00
FE00
FE00
FE00
FE00
BE00
3E00
3E00
3E00
3E00
3E00
3E00
3E00
3E00
3E00
3FFC
3FFC
3FFC
3FFC
ENDCHAR
STARTCHAR 0142
ENCODING 322
SWIDTH 140 0
DWIDTH 7 0
BBX 8 36 0 0
BITMAP
7C
7C
7C
7C
7C
7C
7C
7C
7C
7C
7D
7F
7F
7F
7F
7E
7C
7C
FC
FC
FC
FC
FC
FC
7C
7C
7C
7C
7C
7C
7C
7C
7C
7C
7C
7C
ENDCHAR
STARTCHAR 0152
ENCODING 338
SWIDTH 440 0
DWIDTH 22 0
BBX 21 37 1 -1
BITMAP
0FFFF8
1FFFF8
3FFFF8
7FFFF8
7CFC00
FC7C00
FC7C00
FC7C00
FC7C00
FC7C00
FC7C00
FC7C00
FC7C00
FC7C00
FC7FF8
FC7FF8
FC7FF8
FC7FF8
FC7C00
FC7C00
FC7C00
FC7C00
FC7C00
FC7C00
FC7C00
FC7C00
FC7C00
FC7C00
FC7C00
FC7C00
FC7C00
FC7C00
7CFFF8
7FFFF8
3FFFF8
3FFFF8
078000
ENDCHAR
STARTCHAR 0153
ENCODING 339
SWIDTH 420 0
DWIDTH 21 0
BBX 19 29 1 0
BITMAP
1FBF00
3FFFC0
7FFFC0
FFFBE0
F9F3E0
F9F3E0
F9F3E0
F9F3E0
F9F3E0
F9F3E0
F9F3E0
F9F3E0
F9FFE0
F9FFE0
F9FFE0
F9F000
F9F000
F9F000
F9F3E0
F9F3E0
F9F3E0
F9F3E0
F9F3E0
F9F3E0
F9F3E0
FFFBE0
7FFFE0
7FFFC0
1FBF00
ENDCHAR
STARTCHAR 0160
ENCODING 352
SWIDTH 340 0
DWIDTH 17 0
BBX 14 47 1 0
BITMAP
701C
3038
3838
1C70
1C70
1EE0
0FE0
0FC0
07C0
0780
0000
0FC0
3FF0
7FF8
7FFC
FC7C
FC7C
FC7C
FC7C
FC7C
FC7C
FC7C
FC7C
7E7C
7E00
7F00
3F80
1FC0
0FE0
0FE0
07F0
03F8
01F8
FCFC
FCFC
FC7C
FC7C
FC7C
FC7C
FC7C
FC7C
FC7C
FC7C
7FFC
7FF8
3FF0
0FC0
ENDCHAR
STARTCHAR 0161
ENCODING 353
SWIDTH 280 0
DWIDTH 14 0
BBX 12 41 1 0
BITMAP
C030
E070
70E0
70E0
39C0
3FC0
1F80
1F80
0F00
0000
0000
0000
1F80
7FE0
7FE0
FFF0
F9F0
F9F0
F9F0
F9F0
F9F0
FDF0
FE00
7F00
3F00
3F80
1FC0
0FE0
07E0
03F0
FBF0
F9F0
F9F0
F9F0
F9F0
F9F0
F9F0
FFF0
FFE0
7FE0
1F80
ENDCHAR
STARTCHAR 0178
ENCODING 376
SWIDTH 340 0
DWIDTH 17 0
BBX 16 44 0 0
BITMAP
1E3C
1E3C
1E3C
1E3C
0000
0000
0000
0000
FC1F
7C1F
7C1F
7C1F
7E3E
3E3E
3E3E
3E3E
3F7C
1F7C
1F7C
1F7C
1F78
1F78
0F78
0FF8
0FF0
0FF0
07F0
07F0
07E0
07E0
03E0
03E0
03E0
03E0
03E0
03E0
03E0
03E0
03E0
03E0
03E0
03E0
03E0
03E0
ENDCHAR
STARTCHAR 017D
ENCODING 381
SWIDTH 260 0
DWIDTH 13 0
BBX 13 46 0 0
BITMAP
E038
7070
38E0
38E0
1DC0
1FC0
0F80
0F80
0000
0000
7FF0
7FF0
7FF0
7FF0
01F0
03F0
03F0
03E0
03E0
03E0
07E0
07E0
07C0
07C0
0FC0
0FC0
0F80
0F80
0F80
1F80
1F80
1F00
1F00
1F00
3F00
3F00
3E00
3E00
7E00
7E00
7C00
7C00
7FF0
7FF0
7FF0
7FF0
ENDCHAR
STARTCHAR 017E
ENCODING 382
SWIDTH 220 0
DWIDTH 11 0
BBX 13 40 -1 0
BITMAP
E038
7070
38E0
38E0
1DC0
1FC0
0F80
0F80
0000
0000
0000
7FE0
7FE0
7FE0
01E0
03E0
03E0
03E0
03C0
07C0
07C0
07C0
0780
0F80
0F80
0F80
0F00
1F00
1F00
1F00
1F00
3E00
3E00
3E00
3E00
3C00
7C00
7FF0
7FF0
7FF0
ENDCHAR
STARTCHAR 0192
ENCODING 402
SWIDTH 340 0
DWIDTH 17 0
BBX 17 42 0 -6
BITMAP
001F80
003F80
007F00
007F00
00FC00
00FC00
00F800
00F800
00F800
00F800
01F800
01F800
1FFF00
1FFF00
1FFF00
03F000
03F000
03E000
03E000
03E000
03E000
07E000
07E000
07C000
07C000
07C000
07C000
0FC000
0FC000
0F8000
0F8000
0F8000
0F8000
1F8000
1F0000
1F0000
1F0000
3F0000
FF0000
FE0000
FC0000
F80000
ENDCHAR
STARTCHAR 02C6
ENCODING 710
SWIDTH 140 0
DWIDTH 7 0
BBX 13 9 -3 32
BITMAP
0780
0F80
0FC0
1FC0
1DE0
38E0
3870
7070
E038
ENDCHAR
STARTCHAR 02C7
ENCODING 711
SWIDTH 140 0
DWIDTH 7 0
BBX 13 8 -3 32
BITMAP
E038
7070
3870
38E0
1DE0
1FC0
0FC0
0F80
ENDCHAR
STARTCHAR 02D8
ENCODING 728
SWIDTH 140 0
DWIDTH 7 0
BBX 12 5 -2 34
BITMAP
8030
C030
E060
7FC0
1F80
ENDCHAR
STARTCHAR 02D9
ENCODING 729
SWIDTH 140 0
DWIDTH 7 0
BBX 5 4 1 34
BITMAP
F8
F8
F8
F8
ENDCHAR
STARTCHAR 02DA
ENCODING 730
SWIDTH 140 0
DWIDTH 7 0
BBX 8 8 0 32
BITMAP
3C
FE
E7
C7
C7
E7
FE
3C
ENDCHAR
STARTCHAR 02DB
ENCODING 731
SWIDTH 140 0
DWIDTH 7 0
BBX 10 10 -1 -10
BITMAP
0F80
3E00
7800
F000
F000
F000
F000
F000
7840
3FC0
ENDCHAR
STARTCHAR 02DC
ENCODING 732
SWIDTH 140 0
DWIDTH 7 0
BBX 14 6 -3 33
BITMAP
001C
3F18
7FF8
7FF0
61C0
C000
ENDCHAR
STARTCHAR 02DD
ENCODING 733
SWIDTH 140 0
DWIDTH 7 0
BBX 16 8 -3 32
BITMAP
1F1F
1E3E
3E3C
3C78
3870
78E0
71E0
E3C0
ENDCHAR
STARTCHAR 2013
ENCODING 8211
SWIDTH 500 0
DWIDTH 25 0
BBX 25 3 0 14
BITMAP
FFFFFF80
FFFFFF80
FFFFFF80
ENDCHAR
STARTCHAR 2014
ENCODING 8212
SWIDTH 1000 0
DWIDTH 50 0
BBX 50 3 0 14
BITMAP
FFFFFFFFFFFFC0
FFFFFFFFFFFFC0
FFFFFFFFFFFFC0
ENDCHAR
STARTCHAR 2018
ENCODING 8216
SWIDTH 160 0
DWIDTH 8 0
BBX 6 10 1 26
BITMAP
F0
F0
F8
78
78
78
38
3C
3C
1C
ENDCHAR
STARTCHAR 2019
ENCODING 8217
SWIDTH 160 0
DWIDTH 8 0
BBX 7 10 1 26
BITMAP
3E
3C
3C
7C
78
78
78
70
70
F0
ENDCHAR
STARTCHAR 201A
ENCODING 8218
SWIDTH 160 0
DWIDTH 8 0
BBX 7 10 1 -5
BITMAP
3E
3C
3C
7C
78
78
78
70
70
F0
ENDCHAR
STARTCHAR 201C
ENCODING 8220
SWIDTH 320 0
DWIDTH 16 0
BBX 13 10 1 26
BITMAP
FBE0
F9E0
79F0
78F0
78F0
3CF0
3C70
3C70
1C78
1C78
ENDCHAR
STARTCHAR 201D
ENCODING 8221
SWIDTH 320 0
DWIDTH 16 0
BBX 13 10 2 26
BITMAP
3CF8
7CF0
78F0
78F0
79E0
79E0
71E0
F1C0
F1C0
E3C0
ENDCHAR
STARTCHAR 201E
ENCODING 8222
SWIDTH 320 0
DWIDTH 16 0
BBX 13 10 2 -5
BITMAP
3CF8
7CF0
78F0
78F0
79E0
79E0
71E0
F1C0
F1C0
E3C0
ENDCHAR
STARTCHAR 2020
ENCODING 8224
SWIDTH 340 0
DWIDTH 17 0
BBX 16 42 0 -6
BITMAP
03E0
03E0
03E0
03E0
03E0
03E0
03E0
03E0
03E0
03E0
03E0
FFFF
FFFF
FFFF
FFFF
03E0
03E0
03E0
03E0
03E0
03E0
03E0
03E0
03E0
03E0
03E0
03E0
03E0
03E0
03E0
03E0
03E0
03E0
03E0
03E0
03E0
03E0
03E0
03E0
03E0
03E0
03E0
ENDCHAR
STARTCHAR 2021
ENCODING 8225
SWIDTH 340 0
DWIDTH 17 0
BBX 16 42 0 -6
BITMAP
03E0
03E0
03E0
03E0
03E0
03E0
03E0
03E0
03E0
03E0
03E0
FFFF
FFFF
FFFF
FFFF
03E0
03E0
03E0
03E0
03E0
03E0
03E0
03E0
03E0
03E0
03E0
03E0
FFFF
FFFF
FFFF
FFFF
03E0
03E0
03E0
03E0
03E0
03E0
03E0
03E0
03E0
03E0
03E0
ENDCHAR
STARTCHAR 2022
ENCODING 8226
SWIDTH 500 0
DWIDTH 25 0
BBX 17 17 4 9
BITMAP
0FF800
1FFC00
3FFE00
7FFF00
7FFF00
FFFF80
FFFF80
FFFF80
FFFF80
FFFF80
FFFF80
FFFF80
7FFF00
7FFF00
3FFE00
1FFC00
07F000
ENDCHAR
STARTCHAR 2026
ENCODING 8230
SWIDTH 1000 0
DWIDTH 50 0
BBX 38 5 6 0
BITMAP
F80078007C
F80078007C
F80078007C
F80078007C
F80078007C
ENDCHAR
STARTCHAR 2030
ENCODING 8240
SWIDTH 780 0
DWIDTH 39 0
BBX 36 36 2 0
BITMAP
3F00E00000
7F80C00000
FFC1C00000
F3C1800000
F3C1800000
F3C3800000
F3C3000000
F3C3000000
F3C7000000
F3C6000000
F3C6000000
F3CE000000
F3CE000000
F3CC000000
F3DC000000
F3DC000000
F3D9F80F80
FFDBFC3FE0
7FBFFE3FE0
3E379E79F0
00379E78F0
00779E78F0
00679E78F0
00679E78F0
00E79E78F0
00C79E78F0
00C79E78F0
01C79E78F0
01879E78F0
01879E78F0
03879E78F0
03879E78F0
03079E79F0
0707FE7FE0
0703FC3FC0
0601F81F80
ENDCHAR
STARTCHAR 2039
ENCODING 8249
SWIDTH 180 0
DWIDTH 9 0
BBX 7 22 1 3
BITMAP
02
06
06
0E
1E
3E
7C
FC
F8
F0
E0
F0
F8
F8
7C
3E
1E
1E
0E
06
02
02
ENDCHAR
STARTCHAR 203A
ENCODING 8250
SWIDTH 180 0
DWIDTH 9 0
BBX 7 22 1 3
BITMAP
80
C0
E0
F0
F8
F8
7C
3E
1E
0E
0E
0E
1E
3E
7C
FC
F8
F0
E0
C0
80
80
ENDCHAR
STARTCHAR 2044
ENCODING 8260
SWIDTH 160 0
DWIDTH 8 0
BBX 25 36 -8 0
BITMAP
00000380
00000700
00000E00
00000E00
00001C00
00001800
00003800
00007000
00006000
0000E000
0000C000
0001C000
00038000
00030000
00070000
000E0000
000C0000
001C0000
00180000
00380000
00700000
00600000
00E00000
01C00000
01800000
03800000
03000000
07000000
0E000000
0C000000
1C000000
38000000
38000000
70000000
60000000
E0000000
ENDCHAR
STARTCHAR 2122
ENCODING 8482
SWIDTH 1000 0
DWIDTH 50 0
BBX 44 21 3 15
BITMAP
FFFF07E003F0
FFFF07F007F0
FFFF07F007F0
03C007F00FF0
03C007F80FF0
03C007F80EF0
03C007B81EF0
03C007BC1EF0
03C007BC1CF0
03C0079E3CF0
03C0079E3CF0
03C0079E78F0
03C0078F78F0
03C0078F78F0
03C00787F0F0
03C00787F0F0
03C00787E0F0
03C00783E0F0
03C00783E0F0
03C00783C0F0
03C00781C0F0
ENDCHAR
STARTCHAR 2212
ENCODING 8722
SWIDTH 500 0
DWIDTH 25 0
BBX 25 4 0 12
BITMAP
FFFFFF80
FFFFFF80
FFFFFF80
FFFFFF80
ENDCHAR
STARTCHAR 2219
ENCODING 8729
SWIDTH 160 0
DWIDTH 8 0
BBX 6 5 1 12
BITMAP
78
7C
FC
7C
38
ENDCHAR
STARTCHAR F001
ENCODING 61441
SWIDTH 320 0
DWIDTH 16 0
BBX 15 36 0 0
BITMAP
1F3E
3F3E
3F3E
3E3E
3E00
3E00
3F3E
FF3E
FF3E
FF3E
FE3E
3E3E
3E3E
3E3E
3E3E
3E3E
3E3E
3E3E
3E3E
3E3E
3E3E
3E3E
3E3E
3E3E
3E3E
3E3E
3E3E
3E3E
3E3E
3E3E
3E3E
3E3E
3E3E
3E3E
3E3E
3E3E
ENDCHAR
STARTCHAR F002
ENCODING 61442
SWIDTH 320 0
DWIDTH 16 0
BBX 15 36 0 0
BITMAP
073E
3F3E
3F3E
3F3E
3E3E
3E3E
3E3E
FF3E
FF3E
FF3E
FF3E
3E3E
3E3E
3E3E
3E3E
3E3E
3E3E
3E3E
3E3E
3E3E
3E3E
3E3E
3E3E
3E3E
3E3E
3E3E
3E3E
3E3E
3E3E
3E3E
3E3E
3E3E
3E3E
3E3E
3E3E
3E3E
ENDCHAR
ENDFONT
